<svg width="132" height="134" viewBox="0 0 132 134" fill="none" xmlns="http://www.w3.org/2000/svg">
<mask id="mask0" mask-type="alpha" maskUnits="userSpaceOnUse" x="0" y="54" width="58" height="80">
<rect y="54" width="58" height="80" fill="#F6F5F5"/>
</mask>
<g mask="url(#mask0)">
<rect x="0.5" y="129.5" width="71.0909" height="133" rx="5.5" transform="rotate(-90 0.5 129.5)" stroke="black"/>
<line x1="19.4998" y1="130" x2="19.4998" y2="57.9091" stroke="black"/>
<line x1="11.5005" y1="98.5753" x2="11.5005" y2="89.3329" stroke="black"/>
<line x1="11.5005" y1="105.97" x2="11.5005" y2="104.121" stroke="black"/>
</g>
<rect x="59.5908" y="0.5" width="71.0909" height="133" rx="5.5" stroke="black"/>
<line x1="59.0908" y1="19.5" x2="131.182" y2="19.5" stroke="black"/>
<line x1="90.5151" y1="11.5" x2="99.7576" y2="11.5" stroke="black"/>
<line x1="83.1207" y1="11.5" x2="84.9692" y2="11.5" stroke="black"/>
<line x1="59.0908" y1="113.5" x2="131.182" y2="113.5" stroke="black"/>
<path d="M99.2581 124C99.2581 125.971 97.7904 127.5 96.0611 127.5C94.3318 127.5 92.8641 125.971 92.8641 124C92.8641 122.029 94.3318 120.5 96.0611 120.5C97.7904 120.5 99.2581 122.029 99.2581 124Z" fill="#C4C4C4" stroke="black"/>
<g clip-path="url(#clip0)">
<path d="M122.131 44.8608C121.175 43.664 119.488 42.9773 117.504 42.9773C115.405 42.9773 113.515 43.7147 112.207 44.9109L112.42 43.5296L111.853 43.3556C111.049 43.1084 110.158 42.9773 109.274 42.9773C107.754 42.9773 106.3 43.4625 105.127 44.2619L105.464 43.1124H96.3769L96.2692 43.4795C95.462 43.1445 94.5735 42.9773 93.5727 42.9773C91.7022 42.9773 89.677 43.7273 88.626 45.1708C88.5572 45.0651 88.485 44.9609 88.4045 44.8608C87.4486 43.664 85.7622 42.9773 83.778 42.9773C81.7409 42.9773 79.8991 43.6708 78.5964 44.8055L79.1034 41.6211L78.5267 41.4489C77.5424 41.1551 76.4488 40.9996 75.3633 40.9996C71.3809 40.9996 67.7567 43.6133 67.1123 46.9495C66.8376 48.3688 67.1581 49.7436 68.0137 50.8212C68.7434 51.7392 69.8205 52.3937 71.0999 52.7281H67.1542V57.9384H87.2511L87.2822 57.8751L87.2861 57.9384H89.7052L90.0332 57.3865L89.932 57.9384H95.401L95.4815 57.5034C95.9618 57.8247 96.5858 57.999 97.3047 57.999C97.9469 57.999 98.5428 57.8618 99.0563 57.6174L98.9977 57.9384H106.666L106.679 57.8677C107.034 57.9505 107.408 57.9993 107.765 57.9993C107.981 57.9993 108.205 57.9796 108.427 57.9391H111.351L111.567 57.4635H111.762L111.822 57.9391H120.839L121.287 55.5006H121.122L121.184 55.1656H121.302L121.751 52.7278H121.502C121.705 52.5377 121.853 52.2936 121.905 52.0155C121.935 51.8542 121.93 51.6879 121.891 51.5287C121.851 51.3695 121.778 51.2213 121.677 51.0946C121.623 51.0291 121.563 50.9699 121.497 50.9182C122.212 50.1595 122.708 49.2414 122.9 48.2093C123.135 46.9439 122.87 45.7857 122.131 44.8608ZM116.914 55.3189H116.637L117.055 53.052C117.15 53.0393 117.245 53.0251 117.339 53.0096L116.914 55.3189ZM110.46 47.9445C110.431 48.0959 110.412 48.2458 110.397 48.3929C109.789 48.8132 109.218 49.0119 108.609 49.0119C108.196 49.0119 107.839 48.8728 107.653 48.6398C107.547 48.5075 107.511 48.3595 107.544 48.1874C107.653 47.6067 108.416 47.0975 109.176 47.0975C109.652 47.0975 110.099 47.2712 110.537 47.6268C110.51 47.7319 110.48 47.8367 110.46 47.9445ZM111.076 52.7281L110.779 53.2333L110.533 53.0906C110.367 52.9977 110.194 52.9207 110.015 52.8607C110.147 52.8285 110.27 52.7918 110.377 52.7516L110.724 52.6215L111.064 51.0813C111.11 51.1475 111.154 51.2151 111.205 51.2788C111.718 51.9213 112.458 52.4126 113.351 52.7278L111.076 52.7281ZM114.088 52.9413L113.969 53.5825L113.805 52.8702C113.898 52.8953 113.992 52.9197 114.088 52.9413ZM116.981 47.1649C117.352 47.1649 117.637 47.2665 117.785 47.451C117.92 47.621 117.916 47.8376 117.887 47.9899C117.768 48.6182 117.144 49.057 116.366 49.057C115.987 49.057 115.688 48.9538 115.545 48.7739C115.445 48.6494 115.415 48.4745 115.457 48.2541C115.557 47.7131 116.113 47.1649 116.981 47.1649ZM99.8677 53.1963C99.7583 53.1209 99.6435 53.0542 99.5244 52.9966H99.9048L99.8677 53.1963ZM97.7754 55.3183C97.7263 55.3634 97.6464 55.3937 97.554 55.3992C97.6012 55.3572 97.6755 55.3226 97.7754 55.3183ZM97.1808 47.2236L96.7295 48.7575C96.7038 48.3592 96.5764 47.9751 96.3602 47.6441C96.2683 47.5079 96.1634 47.3817 96.0468 47.2674L97.1808 47.2236ZM84.1596 47.9896C84.042 48.6182 83.4168 49.057 82.6387 49.057C82.2604 49.057 81.9608 48.9538 81.8175 48.7739C81.7175 48.6494 81.6882 48.4745 81.7298 48.2541C81.831 47.7124 82.3873 47.1649 83.2549 47.1649C83.6254 47.1649 83.9106 47.2665 84.0588 47.451C84.1934 47.621 84.1881 47.8379 84.1596 47.9896ZM89.3751 52.9775L89.3604 53.0096L89.3574 52.9747C89.3634 52.9753 89.3691 52.9766 89.3751 52.9775ZM96.0899 50.9352L95.5629 52.7281H93.5386C94.5735 52.3755 95.5012 51.7844 96.0899 50.9352ZM96.3093 52.9966H96.4221C96.3805 53.0149 96.3398 53.0331 96.2994 53.0529L96.3093 52.9966ZM74.5343 48.2937C73.9567 48.2937 73.4564 48.0978 73.1957 47.7702C73.0449 47.5805 72.9943 47.3703 73.0407 47.1281C73.1915 46.3478 74.1992 45.6887 75.2412 45.6887C75.9448 45.6887 76.5958 45.9612 77.2323 46.5178C77.064 46.8416 76.9301 47.1833 76.8331 47.5369C76.0559 48.0499 75.3214 48.2937 74.5343 48.2937ZM86.4398 51.988L87.097 52.2936C87.4603 52.4623 87.864 52.6067 88.2869 52.7284H87.0635L86.9324 52.9994L86.9153 52.7284H84.8007C85.3733 52.5489 85.9234 52.3004 86.4398 51.988ZM102.464 55.3189L102.942 52.7281H100.627L102.249 47.2075L102.743 47.227C102.65 47.4783 102.577 47.7371 102.525 48.0007C102.294 49.2325 102.575 50.4219 103.316 51.3486C103.804 51.9596 104.474 52.4237 105.259 52.7278H103.218L102.741 55.3186L102.464 55.3189ZM76.6771 52.5343L77.0255 52.4076L77.3302 51.0708C77.3793 51.1413 77.4247 51.2121 77.4786 51.2791C77.9919 51.9216 78.7317 52.4129 79.6244 52.7281H75.932C76.2112 52.674 76.4677 52.6101 76.6771 52.5343ZM118.528 52.7281C118.822 52.6345 119.112 52.5237 119.394 52.3962C119.435 52.497 119.484 52.5943 119.552 52.6799C119.567 52.6978 119.586 52.7117 119.602 52.7281H118.528Z" fill="white"/>
<path d="M86.2815 53.4259L86.4213 55.7031H86.4563C86.5287 55.4704 86.6089 55.2275 86.7211 54.9997L87.4816 53.4259H88.7167L88.9032 55.7031H88.9388C89.0031 55.4799 89.0755 55.2469 89.1743 55.0297L89.9162 53.4259H91.5924L89.3257 57.2413H87.9203L87.7964 55.1666H87.7435C87.6896 55.3644 87.6423 55.5563 87.5546 55.7435L86.8322 57.2413H85.4615L84.611 53.4259H86.2815Z" fill="#005DAA"/>
<path d="M91.475 53.4259H93.0276L92.7915 54.7111H93.7794L94.0158 53.4259H95.5685L94.8664 57.2413H93.3137L93.5573 55.9157H92.5688L92.3252 57.2413H90.7726L91.475 53.4259Z" fill="#005DAA"/>
<path d="M100.116 55.3436C99.8909 56.5683 98.6555 57.3019 97.3037 57.3019C95.9506 57.3019 94.9855 56.568 95.2111 55.3436C95.432 54.1443 96.6812 53.365 98.0279 53.365C99.3746 53.365 100.337 54.1443 100.116 55.3436ZM96.8308 55.3637C96.7503 55.7988 97.0367 56.0976 97.5248 56.0976C98.0132 56.0976 98.4092 55.7988 98.4897 55.3637C98.5639 54.9586 98.3089 54.6202 97.7975 54.6202C97.2848 54.6202 96.905 54.9589 96.8308 55.3637ZM100.469 53.4259H102.081L101.604 56.0167H102.957L102.731 57.241H99.767L100.469 53.4259ZM106.769 55.8748L106.841 55.9311C107.094 56.123 107.412 56.2803 107.783 56.2803C107.942 56.2803 108.205 56.224 108.236 56.0525C108.268 55.881 108.059 55.8656 107.917 55.8399L107.603 55.7892C106.991 55.6928 106.521 55.3739 106.63 54.7775C106.798 53.8718 107.849 53.3656 108.813 53.3656C109.319 53.3656 109.765 53.4725 110.158 53.6996L109.543 54.6765C109.296 54.5148 109.008 54.3878 108.661 54.3878C108.52 54.3878 108.305 54.4329 108.277 54.5896C108.251 54.7312 108.447 54.7516 108.566 54.7769L108.918 54.8477C109.575 54.9799 110.012 55.2929 109.893 55.9406C109.725 56.8516 108.678 57.3019 107.719 57.3019C107.161 57.3019 106.537 57.1702 106.078 56.9527L106.769 55.8748Z" fill="#005DAA"/>
<path d="M112.306 55.8597L112.241 55.1867C112.224 55.0248 112.225 54.8579 112.226 54.6957H112.167L111.659 55.8597H112.306ZM110.903 57.2413H109.197L111.44 53.4259H113.222L114.102 57.2413H112.397L112.337 56.7658H111.12L110.903 57.2413Z" fill="#005DAA"/>
<path d="M114.67 53.4259H116.281L115.804 56.0167H117.157L116.932 57.241H113.968L114.67 53.4259ZM117.933 53.4259H120.915L120.723 54.4685H119.364L119.297 54.8329H120.538L120.356 55.8248H119.115L119.046 56.199H120.452L120.26 57.2413H117.231L117.933 53.4259Z" fill="#005DAA"/>
<path d="M96.0686 46.5688L98.1034 46.4899L96.396 52.2995H100.047L101.754 46.4899L103.743 46.5688L104.553 43.8105H96.8784L96.0686 46.5688ZM88.5092 48.0771C87.9986 50.8008 85.2016 52.4339 82.137 52.4339C79.0731 52.4339 76.8872 50.8014 77.3977 48.0771C77.8975 45.4084 80.7272 43.6754 83.7783 43.6754C86.8291 43.6754 89.0093 45.409 88.5092 48.0771ZM81.0662 48.1222C80.8852 49.0903 81.5337 49.7547 82.6392 49.7547C83.7448 49.7547 84.642 49.0906 84.8236 48.1222C84.9921 47.2217 84.4139 46.4677 83.2548 46.4677C82.0955 46.4671 81.235 47.2217 81.0662 48.1222Z" fill="#E31837"/>
<path d="M87.3745 51.657C88.4163 52.1403 89.827 52.4339 91.093 52.4339C93.2645 52.4339 95.6371 51.4321 96.0169 49.4055C96.2866 47.9646 95.2987 47.2665 93.8077 46.9739L93.0113 46.8163C92.742 46.7594 92.2972 46.7149 92.3562 46.3991C92.4217 46.0502 92.9072 45.9486 93.2271 45.9486C94.0127 45.9486 94.6666 46.2301 95.225 46.5904L96.6179 44.4177C95.7263 43.9112 94.7184 43.6754 93.5725 43.6754C91.3874 43.6754 89.0046 44.8012 88.6275 46.8163C88.3785 48.1447 89.4446 48.8539 90.8299 49.0678L91.5419 49.18C91.8645 49.2371 92.3379 49.2702 92.2661 49.6527C92.1943 50.0353 91.5984 50.1592 91.2381 50.1592C90.3983 50.1592 89.678 49.8103 89.1055 49.3827L88.9424 49.2588L87.3745 51.657ZM111.659 44.0243C110.929 43.799 110.099 43.6754 109.272 43.6754C106.328 43.6754 103.652 45.6568 103.188 48.1336C102.734 50.5541 104.621 52.4342 107.485 52.4342C108.138 52.4342 109.515 52.3329 110.147 52.0965L110.848 48.9219C110.171 49.4058 109.448 49.7099 108.609 49.7099C107.517 49.7099 106.706 48.9893 106.881 48.0554C107.054 47.1321 108.084 46.4006 109.176 46.4006C110.002 46.4006 110.661 46.7946 111.161 47.2569L111.659 44.0243ZM117.505 43.6754C114.454 43.6754 111.624 45.4084 111.124 48.0768C110.614 50.8007 112.8 52.4339 115.864 52.4339C118.928 52.4339 121.726 50.8014 122.236 48.0768C122.735 45.409 120.555 43.6754 117.505 43.6754ZM116.981 46.4671C118.141 46.4671 118.719 47.2208 118.55 48.1216C118.369 49.0897 117.471 49.7541 116.365 49.7541C115.259 49.7541 114.611 49.09 114.793 48.1216C114.961 47.2217 115.822 46.4671 116.981 46.4671ZM78.3385 42.1192C77.4272 41.847 76.3932 41.6974 75.3628 41.6974C71.6904 41.6974 68.3526 44.0923 67.7741 47.086C67.2087 50.0118 69.561 52.2837 73.1335 52.2837C73.9478 52.2837 75.6668 52.1613 76.453 51.8761L77.3275 48.0381C76.4836 48.6237 75.5816 48.9911 74.5347 48.9911C73.1721 48.9911 72.1605 48.12 72.379 46.9899C72.5948 45.8744 73.8793 44.9894 75.2413 44.9894C76.2711 44.9894 77.0932 45.4659 77.7166 46.0236L78.3385 42.1192Z" fill="#E31837"/>
<path d="M119.989 51.8867C120.044 51.59 120.364 51.3514 120.712 51.3514C121.057 51.3514 121.292 51.5903 121.238 51.8867C121.182 52.1849 120.86 52.4234 120.514 52.4234C120.166 52.4234 119.935 52.1839 119.989 51.8867ZM121.074 51.8867C121.118 51.6481 120.953 51.4914 120.686 51.4914C120.415 51.4914 120.195 51.6481 120.152 51.8867C120.108 52.1252 120.269 52.2834 120.54 52.2834C120.807 52.2834 121.031 52.1255 121.074 51.8867ZM120.852 52.1666H120.691L120.589 51.929H120.484L120.44 52.1666H120.303L120.406 51.6058H120.723C120.863 51.6058 120.938 51.6456 120.914 51.7776C120.896 51.8737 120.823 51.9231 120.739 51.9299L120.852 52.1666ZM120.652 51.8218C120.721 51.8218 120.78 51.8218 120.791 51.7621C120.8 51.7127 120.741 51.7127 120.672 51.7127H120.524L120.505 51.8218H120.652Z" fill="#E31837"/>
<path d="M68.0293 57.2475H85.1158L85.1146 57.2413H85.1002L84.8847 56.271H68.0293V57.2475ZM68.0293 55.8607H84.7929L84.5747 54.8845H68.0293V55.8607ZM68.0293 54.4679H84.4765L84.4029 54.1122L84.2515 53.4333H68.0293V54.4679ZM103.733 53.4259H106.715L106.523 54.4685H105.165L105.097 54.8329H106.338L106.156 55.8248H104.915L104.846 56.199H106.252L106.06 57.2413H103.031L103.733 53.4259Z" fill="#005DAA"/>
</g>
<defs>
<clipPath id="clip0">
<rect width="56" height="17" fill="white" transform="translate(67 41)"/>
</clipPath>
</defs>
</svg>
