<svg width="194" height="38" viewBox="0 0 194 38" fill="none" xmlns="http://www.w3.org/2000/svg">
<path d="M100.437 17.2406L107.639 16.9618L101.596 37.523H114.517L120.558 16.9618L127.597 17.2406L130.464 7.47844H103.303L100.437 17.2406ZM73.6828 22.5789C71.8758 32.2186 61.9765 37.9988 51.1303 37.9988C40.2862 37.9988 32.5498 32.2208 34.3568 22.5789C36.1257 13.1339 46.1404 7.00049 56.939 7.00049C67.7365 7.00049 75.4527 13.1361 73.6828 22.5789ZM47.3405 22.7386C46.6997 26.1651 48.995 28.5165 52.9077 28.5165C56.8204 28.5165 59.9958 26.1662 60.6387 22.7386C61.2351 19.5516 59.1887 16.883 55.0864 16.883C50.9831 16.8808 47.9379 19.5516 47.3405 22.7386Z" fill="#E31837"/>
<path d="M69.6666 35.2494C73.3537 36.9599 78.3468 37.9989 82.8272 37.9989C90.5127 37.9989 98.9101 34.4532 100.254 27.2808C101.209 22.181 97.7121 19.7104 92.4352 18.6746L89.6167 18.1169C88.6634 17.9156 87.0894 17.7581 87.2981 16.6404C87.53 15.4056 89.2481 15.0458 90.3803 15.0458C93.1607 15.0458 95.4751 16.0422 97.4516 17.3174L102.381 9.6277C99.2257 7.83515 95.6583 7.00066 91.6027 7.00066C83.8694 7.00066 75.4361 10.985 74.1015 18.1169C73.2202 22.8186 76.9931 25.3286 81.8961 26.0854L84.416 26.4825C85.5578 26.6848 87.2335 26.8018 86.9793 28.1558C86.7251 29.5098 84.6162 29.9483 83.3409 29.9483C80.3688 29.9483 77.8193 28.7135 75.793 27.1999L75.2158 26.7613L69.6666 35.2494ZM155.615 8.23543C153.031 7.43813 150.094 7.00066 147.168 7.00066C136.748 7.00066 127.278 14.0134 125.635 22.7792C124.028 31.346 130.705 38 140.843 38C143.153 38 148.028 37.6413 150.263 36.8046L152.746 25.5692C150.348 27.2819 147.791 28.3581 144.82 28.3581C140.955 28.3581 138.084 25.8076 138.704 22.5025C139.316 19.2346 142.963 16.6459 146.828 16.6459C149.752 16.6459 152.083 18.0403 153.854 19.6764L155.615 8.23543ZM176.304 7.00066C165.507 7.00066 155.493 13.134 153.722 22.578C151.916 32.2188 159.652 37.9989 170.498 37.9989C181.341 37.9989 191.244 32.221 193.049 22.578C194.815 13.1362 187.1 7.00066 176.304 7.00066ZM174.452 16.881C178.554 16.881 180.603 19.5485 180.002 22.7366C179.362 26.1631 176.185 28.5145 172.271 28.5145C168.358 28.5145 166.063 26.1642 166.705 22.7366C167.303 19.5518 170.35 16.881 174.452 16.881ZM37.6862 1.4929C34.461 0.529365 30.8014 0 27.1546 0C14.1572 0 2.34391 8.47606 0.296473 19.0717C-1.70435 29.4266 6.62096 37.4674 19.2646 37.4674C22.1467 37.4674 28.2307 37.0343 31.0133 36.0248L34.1083 22.4413C31.1213 24.5138 27.9289 25.8142 24.2238 25.8142C19.4013 25.8142 15.8212 22.7311 16.5944 18.7315C17.3581 14.7833 21.9041 11.651 26.7246 11.651C30.3693 11.651 33.2789 13.3375 35.4852 15.3116L37.6862 1.4929Z" fill="#E31837"/>
<path d="M185.096 36.0632C185.29 35.0133 186.422 34.1689 187.655 34.1689C188.878 34.1689 189.708 35.0144 189.515 36.0632C189.318 37.1186 188.181 37.963 186.956 37.963C185.724 37.963 184.905 37.1154 185.096 36.0632ZM188.938 36.0632C189.093 35.2189 188.507 34.6644 187.562 34.6644C186.603 34.6644 185.826 35.2189 185.674 36.0632C185.519 36.9076 186.088 37.4675 187.048 37.4675C187.993 37.4675 188.783 36.9087 188.938 36.0632ZM188.152 37.0541H187.581L187.221 36.2131H186.848L186.694 37.0541H186.209L186.574 35.069H187.694C188.188 35.069 188.455 35.2101 188.37 35.6771C188.306 36.0173 188.047 36.1923 187.75 36.2163L188.152 37.0541ZM187.445 35.8335C187.687 35.8335 187.896 35.8335 187.936 35.6225C187.968 35.4475 187.758 35.4475 187.516 35.4475H186.99L186.921 35.8335H187.445Z" fill="#E31837"/>
</svg>
