<svg width="70" height="70" viewBox="0 0 70 70" fill="none" xmlns="http://www.w3.org/2000/svg">
<circle cx="35" cy="35" r="35" fill="#225FA6"/>
<path d="M23.3548 43.6774C22.9912 43.6774 22.6357 43.7853 22.3333 43.9873C22.0309 44.1893 21.7952 44.4765 21.6561 44.8125C21.5169 45.1485 21.4805 45.5182 21.5514 45.8749C21.6224 46.2315 21.7975 46.5592 22.0547 46.8163C22.3118 47.0735 22.6394 47.2486 22.9961 47.3195C23.3528 47.3905 23.7225 47.3541 24.0585 47.2149C24.3944 47.0757 24.6816 46.84 24.8837 46.5377C25.0857 46.2353 25.1935 45.8798 25.1935 45.5161C25.193 45.0287 24.9991 44.5613 24.6544 44.2166C24.3097 43.8719 23.8423 43.678 23.3548 43.6774ZM23.3548 46.129C23.2336 46.129 23.1151 46.0931 23.0143 46.0258C22.9135 45.9584 22.835 45.8627 22.7886 45.7507C22.7422 45.6387 22.73 45.5155 22.7537 45.3966C22.7773 45.2777 22.8357 45.1685 22.9214 45.0828C23.0072 44.997 23.1164 44.9387 23.2353 44.915C23.3541 44.8914 23.4774 44.9035 23.5894 44.9499C23.7014 44.9963 23.7971 45.0748 23.8644 45.1756C23.9318 45.2764 23.9677 45.3949 23.9677 45.5161C23.9675 45.6786 23.9029 45.8344 23.788 45.9493C23.6731 46.0642 23.5173 46.1289 23.3548 46.129Z" fill="white"/>
<path d="M46.6451 43.6774C46.2814 43.6774 45.9259 43.7853 45.6236 43.9873C45.3212 44.1893 45.0855 44.4765 44.9464 44.8125C44.8072 45.1485 44.7708 45.5182 44.8417 45.8749C44.9127 46.2315 45.0878 46.5592 45.3449 46.8163C45.6021 47.0735 45.9297 47.2486 46.2864 47.3195C46.6431 47.3905 47.0128 47.3541 47.3487 47.2149C47.6847 47.0757 47.9719 46.84 48.1739 46.5377C48.376 46.2353 48.4838 45.8798 48.4838 45.5161C48.4833 45.0287 48.2894 44.5613 47.9447 44.2166C47.6 43.8719 47.1326 43.678 46.6451 43.6774ZM46.6451 46.129C46.5239 46.129 46.4054 46.0931 46.3046 46.0258C46.2038 45.9584 46.1252 45.8627 46.0789 45.7507C46.0325 45.6387 46.0203 45.5155 46.044 45.3966C46.0676 45.2777 46.126 45.1685 46.2117 45.0828C46.2974 44.997 46.4066 44.9387 46.5255 44.915C46.6444 44.8914 46.7677 44.9035 46.8797 44.9499C46.9916 44.9963 47.0874 45.0748 47.1547 45.1756C47.2221 45.2764 47.258 45.3949 47.258 45.5161C47.2578 45.6786 47.1932 45.8344 47.0783 45.9493C46.9634 46.0642 46.8076 46.1289 46.6451 46.129Z" fill="white"/>
<path d="M53.9027 35.3779L48.3866 26.7973C48.331 26.711 48.2547 26.6401 48.1646 26.5909C48.0746 26.5418 47.9736 26.5161 47.871 26.5161H40.5161V23.1452C40.5155 22.5764 40.2893 22.0312 39.8871 21.629C39.485 21.2268 38.9397 21.0006 38.371 21H18.1452C17.5764 21.0006 17.0312 21.2268 16.629 21.629C16.2268 22.0312 16.0006 22.5764 16 23.1452V45.5161C16 45.6787 16.0646 45.8346 16.1795 45.9495C16.2945 46.0645 16.4504 46.129 16.6129 46.129H19.109C19.2563 47.1501 19.7666 48.0838 20.5464 48.7591C21.3262 49.4345 22.3232 49.8062 23.3548 49.8062C24.3864 49.8062 25.3835 49.4345 26.1633 48.7591C26.9431 48.0838 27.4534 47.1501 27.6007 46.129H42.3993C42.5466 47.1501 43.0569 48.0838 43.8367 48.7591C44.6165 49.4345 45.6136 49.8062 46.6452 49.8062C47.6768 49.8062 48.6738 49.4345 49.4536 48.7591C50.2334 48.0838 50.7437 47.1501 50.891 46.129H53.3871C53.5496 46.129 53.7055 46.0645 53.8205 45.9495C53.9354 45.8346 54 45.6787 54 45.5161V35.7097C54 35.5921 53.9662 35.4769 53.9027 35.3779ZM23.3548 48.5806C22.7487 48.5806 22.1562 48.4009 21.6523 48.0642C21.1483 47.7274 20.7555 47.2488 20.5236 46.6889C20.2916 46.1289 20.231 45.5127 20.3492 44.9183C20.4675 44.3238 20.7593 43.7778 21.1879 43.3492C21.6165 42.9206 22.1625 42.6287 22.757 42.5105C23.3514 42.3923 23.9676 42.4529 24.5276 42.6849C25.0875 42.9168 25.5662 43.3096 25.9029 43.8136C26.2396 44.3175 26.4194 44.91 26.4194 45.5161C26.4185 46.3286 26.0954 47.1076 25.5209 47.6822C24.9464 48.2567 24.1673 48.5798 23.3548 48.5806ZM39.2903 44.9032H27.6007C27.4534 43.8822 26.9431 42.9485 26.1633 42.2731C25.3835 41.5978 24.3864 41.226 23.3548 41.226C22.3232 41.226 21.3262 41.5978 20.5464 42.2731C19.7666 42.9485 19.2563 43.8822 19.109 44.9032H17.2258V38.7742H39.2903V44.9032ZM39.2903 37.5484H17.2258V23.1452C17.226 22.9014 17.3229 22.6677 17.4953 22.4953C17.6677 22.3229 17.9014 22.226 18.1452 22.2258H38.371C38.6147 22.226 38.8485 22.3229 39.0208 22.4953C39.1932 22.6677 39.2901 22.9014 39.2903 23.1452V37.5484ZM48.7183 29.5806L52.2647 35.0968H43.5806V29.5806H48.7183ZM46.6452 48.5806C46.0391 48.5806 45.4466 48.4009 44.9426 48.0642C44.4387 47.7274 44.0459 47.2488 43.8139 46.6889C43.582 46.1289 43.5213 45.5127 43.6395 44.9183C43.7578 44.3238 44.0496 43.7778 44.4782 43.3492C44.9068 42.9206 45.4528 42.6287 46.0473 42.5105C46.6418 42.3923 47.2579 42.4529 47.8179 42.6849C48.3779 42.9168 48.8565 43.3096 49.1932 43.8136C49.5299 44.3175 49.7097 44.91 49.7097 45.5161C49.7089 46.3286 49.3857 47.1076 48.8112 47.6822C48.2367 48.2567 47.4577 48.5798 46.6452 48.5806ZM52.7742 40H51.5484C51.3858 40 51.2299 39.9354 51.115 39.8205C51.0001 39.7055 50.9355 39.5496 50.9355 39.3871C50.9355 39.2245 51.0001 39.0687 51.115 38.9537C51.2299 38.8388 51.3858 38.7742 51.5484 38.7742H52.7742V40ZM52.7742 37.5484H51.5484C51.0607 37.5484 50.593 37.7421 50.2482 38.0869C49.9034 38.4318 49.7097 38.8994 49.7097 39.3871C49.7097 39.8748 49.9034 40.3424 50.2482 40.6873C50.593 41.0321 51.0607 41.2258 51.5484 41.2258H52.7742V44.9032H50.891C50.7437 43.8822 50.2334 42.9485 49.4536 42.2731C48.6738 41.5978 47.6768 41.226 46.6452 41.226C45.6136 41.226 44.6165 41.5978 43.8367 42.2731C43.0569 42.9485 42.5466 43.8822 42.3993 44.9032H40.5161V27.7419H47.5362L47.9307 28.3548H42.9677C42.8052 28.3548 42.6493 28.4194 42.5344 28.5344C42.4194 28.6493 42.3548 28.8052 42.3548 28.9677V35.7097C42.3548 35.8722 42.4194 36.0281 42.5344 36.1431C42.6493 36.258 42.8052 36.3226 42.9677 36.3226H52.7742V37.5484Z" fill="white"/>
<path d="M44.8063 37.5483H42.9676C42.8051 37.5483 42.6492 37.6129 42.5343 37.7279C42.4193 37.8428 42.3547 37.9987 42.3547 38.1612C42.3547 38.3238 42.4193 38.4797 42.5343 38.5946C42.6492 38.7096 42.8051 38.7741 42.9676 38.7741H44.8063C44.9689 38.7741 45.1248 38.7096 45.2397 38.5946C45.3547 38.4797 45.4193 38.3238 45.4193 38.1612C45.4193 37.9987 45.3547 37.8428 45.2397 37.7279C45.1248 37.6129 44.9689 37.5483 44.8063 37.5483Z" fill="white"/>
<path d="M31.9354 41.2258H36.8386C37.0012 41.2258 37.1571 41.1612 37.272 41.0463C37.387 40.9314 37.4515 40.7755 37.4515 40.6129C37.4515 40.4504 37.387 40.2945 37.272 40.1795C37.1571 40.0646 37.0012 40 36.8386 40H31.9354C31.7729 40 31.617 40.0646 31.502 40.1795C31.3871 40.2945 31.3225 40.4504 31.3225 40.6129C31.3225 40.7755 31.3871 40.9314 31.502 41.0463C31.617 41.1612 31.7729 41.2258 31.9354 41.2258Z" fill="white"/>
<path d="M36.8388 41.8387H35.0001C34.8376 41.8387 34.6817 41.9033 34.5667 42.0183C34.4518 42.1332 34.3872 42.2891 34.3872 42.4516C34.3872 42.6142 34.4518 42.7701 34.5667 42.885C34.6817 43 34.8376 43.0646 35.0001 43.0646H36.8388C37.0014 43.0646 37.1573 43 37.2722 42.885C37.3872 42.7701 37.4517 42.6142 37.4517 42.4516C37.4517 42.2891 37.3872 42.1332 37.2722 42.0183C37.1573 41.9033 37.0014 41.8387 36.8388 41.8387Z" fill="white"/>
</svg>
