<svg width="92" height="110" viewBox="0 0 92 110" fill="none" xmlns="http://www.w3.org/2000/svg">
<path d="M36.6662 20.625C35.4012 20.625 34.3745 21.647 34.3745 22.9167C34.3747 24.1862 35.4012 25.2083 36.6662 25.2083C37.9312 25.2083 38.958 24.1815 38.958 22.9165C38.958 21.6515 37.9312 20.625 36.6662 20.625Z" fill="#0060A7"/>
<path d="M66.4582 9.16699C65.1932 9.16699 64.1665 10.1937 64.1665 11.4587C64.1665 12.7237 65.193 13.7502 66.458 13.7502C67.7185 13.7502 68.7498 14.777 68.7498 16.042C68.7498 17.307 69.7765 18.3337 71.0415 18.3337C72.3065 18.3337 73.3332 17.307 73.3332 16.042C73.3332 12.247 70.2487 9.16699 66.4582 9.16699Z" fill="#0060A7"/>
<path d="M54.9999 43.5417C53.9044 43.5417 52.9924 44.3117 52.7632 45.3385C52.4239 45.5355 51.6127 45.8335 50.4164 45.8335C49.2569 45.8335 48.4822 45.5585 48.1247 45.3614V42.2035L52.0389 38.2892C52.6897 37.6337 52.8869 36.6485 52.5339 35.7912C52.181 34.9342 51.3422 34.375 50.4164 34.375H41.2497C40.324 34.375 39.4897 34.9342 39.1322 35.7912C38.7747 36.6483 38.9717 37.6337 39.6272 38.2892L43.5415 42.2035V45.3614C43.184 45.5585 42.4094 45.8335 41.2497 45.8335C40.0535 45.8335 39.2422 45.5402 38.903 45.3385C38.6737 44.3072 37.7617 43.5417 36.6662 43.5417C35.4013 43.5417 34.3745 44.5685 34.3745 45.8335C34.3752 48.4917 37.2672 50.4167 41.2501 50.4167C43.0697 50.4167 44.6419 49.9997 45.8334 49.3122C47.0251 49.9997 48.5972 50.4167 50.4167 50.4167C54.3996 50.4167 57.2916 48.4917 57.2916 45.8335C57.2914 44.5685 56.2649 43.5417 54.9999 43.5417Z" fill="#0060A7"/>
<path d="M54.9997 20.625C53.7347 20.625 52.708 21.647 52.708 22.9167C52.708 24.1862 53.7347 25.2083 54.9997 25.2083C56.2647 25.2083 57.2915 24.1815 57.2915 22.9165C57.2915 21.6515 56.2647 20.625 54.9997 20.625Z" fill="#0060A7"/>
<path d="M77.9164 77.9166C85.4971 77.9166 91.6664 71.7474 91.6664 64.1666C91.6664 56.5859 85.4971 50.4166 77.9164 50.4166C75.0839 50.4166 72.4484 51.2829 70.2576 52.7586C69.2676 51.5762 68.2181 50.4899 67.1089 49.4862C70.9956 44.7424 73.3331 38.6787 73.3331 32.0832C73.3331 31.5515 73.3149 31.0199 73.2781 30.4974C78.8606 27.8712 82.4998 22.2704 82.4998 16.0417C82.4998 7.19575 75.3041 0 66.4581 0C61.6274 0 57.1174 2.16326 54.0832 5.86673C48.7024 4.16173 42.9639 4.16173 37.5832 5.86673C34.549 2.15875 30.0439 0 25.2082 0C16.3625 0 9.16651 7.19575 9.16651 16.0417C9.16651 22.275 12.8057 27.8759 18.3882 30.4974C18.3515 31.0199 18.3332 31.547 18.3332 32.0832C18.3332 38.6832 20.6707 44.7424 24.562 49.4862C23.4482 50.4854 22.4032 51.5762 21.4132 52.7541C19.2177 51.2784 16.5825 50.4166 13.75 50.4166C6.16923 50.4166 0 56.5859 0 64.1666C0 71.7474 6.16923 77.9166 13.75 77.9166C13.883 77.9166 14.0067 77.8799 14.135 77.8753C14.245 78.6453 14.3825 79.4016 14.5475 80.1533C13.9105 80.5428 13.2917 80.9691 12.7555 81.5008C7.677 86.5836 9.31324 96.1811 16.477 103.349C19.777 106.645 23.7737 108.9 27.7245 109.688C28.7602 109.904 29.7732 110 30.7402 110C33.7652 110 36.3915 108.996 38.3257 107.067C38.9994 106.393 39.5449 105.623 39.9894 104.789C41.9557 105.164 43.9174 105.417 45.8332 105.417C47.7489 105.417 49.7107 105.165 51.6814 104.793C52.1259 105.628 52.6714 106.398 53.3452 107.071C55.2747 108.996 57.9009 110 60.9259 110C61.8929 110 62.9059 109.899 63.9464 109.688C67.8972 108.9 71.8939 106.65 75.1939 103.35C82.3621 96.1813 83.9939 86.5838 78.9156 81.5008C78.3794 80.9646 77.7606 80.5383 77.1189 80.1488C77.2794 79.3971 77.4214 78.6408 77.5269 77.8708C77.6601 77.8799 77.7838 77.9166 77.9164 77.9166ZM22.9165 32.0832C22.9165 31.139 22.9945 30.2132 23.1045 29.292C23.2375 28.2149 22.5957 27.1882 21.5645 26.84C16.894 25.2632 13.75 20.9229 13.75 16.0417C13.75 9.72596 18.888 4.58347 25.2082 4.58347C29.0949 4.58347 32.6837 6.54971 34.8102 9.83596C35.4015 10.748 36.5519 11.1192 37.5647 10.7297C42.918 8.65346 48.7435 8.65346 54.0967 10.7297C55.105 11.1239 56.26 10.748 56.8512 9.83596C58.9825 6.54971 62.5712 4.58347 66.4579 4.58347C72.7784 4.58347 77.9162 9.72596 77.9162 16.0417C77.9162 20.9229 74.7719 25.2634 70.1017 26.8447C69.0704 27.1929 68.4287 28.2197 68.5617 29.2967C68.6717 30.2087 68.7497 31.1392 68.7497 32.0834C68.7497 38.3351 66.2197 43.9954 62.1497 48.1341C61.3109 48.9866 60.3852 49.7109 59.4454 50.4121C59.1704 50.6139 58.9412 50.8704 58.6572 51.0629C58.0109 51.5029 57.2959 51.8099 56.6129 52.1812C54.7842 53.1666 52.8455 53.9779 50.76 54.4361C50.65 54.4591 50.5492 54.5141 50.4345 54.5369C48.9546 54.8349 47.4099 54.9999 45.8332 54.9999C44.2564 54.9999 42.7119 54.8394 41.2224 54.5324C41.1079 54.5094 41.0069 54.4544 40.8969 54.4316C38.8207 53.9734 36.8957 53.1712 35.0715 52.1904C34.3795 51.8191 33.6552 51.5029 33.0045 51.0584C32.7202 50.8659 32.4912 50.6139 32.2162 50.4076C31.2767 49.7064 30.3507 48.9821 29.512 48.1296C25.4465 43.9954 22.9165 38.3304 22.9165 32.0832ZM13.75 73.3331C8.6945 73.3331 4.58325 69.2219 4.58325 64.1666C4.58325 59.1111 8.6945 54.9999 13.75 54.9999C16.2342 54.9999 18.48 55.9991 20.1345 57.6079C21.4727 58.9141 22.3665 60.5459 22.7332 62.3286C22.8525 62.9199 22.9165 63.5341 22.9165 64.1666C22.9165 64.7486 22.8477 65.3171 22.7422 65.8716C22.6965 66.1009 22.623 66.3254 22.559 66.5499C22.4765 66.8569 22.3895 67.1641 22.2795 67.4574C22.174 67.7231 22.0502 67.9754 21.9265 68.2274C21.812 68.4611 21.6882 68.6904 21.5552 68.9104C21.3995 69.1624 21.2297 69.4099 21.051 69.6483C20.9043 69.8454 20.744 70.0333 20.579 70.2213C20.382 70.4458 20.1802 70.6658 19.9602 70.8676C19.777 71.0371 19.5752 71.1931 19.3782 71.3488C19.149 71.5321 18.92 71.7156 18.6725 71.8758C18.4525 72.0179 18.2142 72.1279 17.985 72.2516C17.7237 72.3891 17.4762 72.5404 17.2012 72.6504C17.0455 72.7146 16.8757 72.7466 16.7155 72.8016C16.3717 72.9208 16.0325 73.0446 15.6705 73.1224C15.6475 73.1269 15.6337 73.1406 15.6109 73.1454C15.0105 73.2644 14.387 73.3331 13.75 73.3331ZM36.6026 100.054C36.5981 100.072 36.5981 100.077 36.5981 100.082C36.5569 100.59 36.4699 101.081 36.3324 101.548C36.3279 101.567 36.3324 101.585 36.3279 101.603C36.0666 102.465 35.6771 103.24 35.0811 103.835C33.6511 105.261 31.3594 105.742 28.6186 105.201C25.5432 104.587 22.3854 102.781 19.7179 100.114C14.5479 94.9391 12.8429 87.8991 15.9962 84.7456C16.4819 84.2598 17.0917 83.9023 17.7654 83.6411C17.8249 83.6228 17.8937 83.6366 17.9534 83.6136C18.2514 83.5081 18.5721 83.4623 18.8884 83.3981C19.1496 83.3476 19.4109 83.2926 19.6904 83.2651C21.5421 83.1001 23.6504 83.5584 25.7586 84.5301C26.0107 84.6494 26.2629 84.7594 26.5149 84.8921C26.8907 85.0891 27.2619 85.3091 27.6332 85.5339C27.9861 85.7539 28.3299 85.9876 28.6736 86.2306C28.9532 86.4276 29.2329 86.6201 29.5079 86.8356C30.1404 87.3398 30.7684 87.8714 31.3596 88.4626C31.3688 88.4718 31.3779 88.4809 31.3871 88.4901C31.9738 89.0768 32.5009 89.6956 33.0004 90.3234C33.1791 90.5479 33.3349 90.7771 33.4999 91.0016C33.8069 91.4234 34.0911 91.8541 34.3569 92.2849C34.5219 92.5554 34.6869 92.8257 34.8336 93.0961C35.0904 93.5681 35.3104 94.0449 35.5166 94.5216C35.6404 94.8104 35.7641 95.0991 35.8696 95.3879C36.0621 95.9286 36.2226 96.4696 36.3463 97.0104C36.4333 97.3954 36.4931 97.7804 36.5388 98.1561C36.5618 98.3211 36.5801 98.4816 36.5938 98.6419C36.6301 99.1236 36.6392 99.5956 36.6026 100.054ZM54.6014 88.1143C54.0331 88.8798 53.5106 89.6589 53.0569 90.4564C53.0201 90.5206 52.9744 90.5801 52.9376 90.6488C52.4746 91.4784 52.0896 92.3218 51.7506 93.1651C51.6451 93.4309 51.5489 93.6968 51.4574 93.9626C51.2328 94.5996 51.0494 95.2368 50.9028 95.8738C50.8571 96.0756 50.7699 96.2726 50.7286 96.4696C50.7011 96.6071 50.7149 96.7309 50.6874 96.8684C50.5681 97.5604 50.5041 98.2434 50.4811 98.9171C50.4628 99.3526 50.4674 99.7788 50.4903 100.2C50.4949 100.269 50.4858 100.342 50.4903 100.416C47.3416 100.98 44.3258 100.98 41.1724 100.416C41.1769 100.37 41.1724 100.324 41.1724 100.278C41.1999 99.8063 41.2044 99.3296 41.1816 98.8346C41.1633 98.3121 41.0991 97.7804 41.0258 97.2488C40.9846 96.9876 41.0029 96.7401 40.9479 96.4743C40.8929 96.2038 40.7783 95.9336 40.7096 95.6631C40.5813 95.1361 40.4301 94.6088 40.2466 94.0773C40.1321 93.7473 40.0174 93.4173 39.8799 93.0873C39.5544 92.2853 39.1924 91.4878 38.7524 90.6993C38.6791 90.5664 38.5874 90.4381 38.5094 90.3051C38.0876 89.5809 37.6111 88.8659 37.0976 88.1693C36.9464 87.9631 36.7952 87.7614 36.6347 87.5598C36.0114 86.7623 35.3467 85.9831 34.6042 85.2406C33.8662 84.5026 33.0872 83.8426 32.2942 83.2194C32.0604 83.0361 31.8267 82.8664 31.5929 82.6923C31.0017 82.2616 30.3967 81.8628 29.7824 81.4961C29.5212 81.3356 29.2645 81.1661 28.9987 81.0194C28.2562 80.6161 27.5045 80.2631 26.7529 79.9606C26.3084 79.7774 25.8637 79.6399 25.4147 79.4931C25.0709 79.3831 24.7272 79.2823 24.3789 79.1906C24.0352 79.0989 23.6959 78.9614 23.3569 78.8926C21.8169 78.5856 20.3732 78.5901 18.9982 78.7369C18.9662 78.7414 18.9294 78.7369 18.8974 78.7414C18.7829 78.1776 18.6912 77.6046 18.6132 77.0319C18.6957 76.9999 18.7689 76.9539 18.8514 76.9174C19.1219 76.8119 19.3694 76.6744 19.6307 76.5506C20.1027 76.3261 20.5612 76.0831 21.0012 75.8081C21.2762 75.6386 21.5374 75.4599 21.7987 75.2719C22.2019 74.9786 22.5779 74.6624 22.9444 74.3276C23.1736 74.1169 23.4164 73.9244 23.6319 73.6996C24.1452 73.1634 24.6219 72.5996 25.0436 71.9901C25.2132 71.7472 25.3461 71.4769 25.4974 71.2201C25.7586 70.7894 26.0061 70.3539 26.2169 69.8956C26.3544 69.5931 26.4736 69.2861 26.5927 68.9744C26.7759 68.4886 26.9272 67.9981 27.0557 67.4894C27.1244 67.2099 27.2024 66.9349 27.2574 66.6461C27.3994 65.8304 27.5004 65.0054 27.5004 64.1666C27.5004 63.2959 27.3996 62.4479 27.2436 61.6136C27.1979 61.3661 27.1244 61.1324 27.0649 60.8894C26.9229 60.3119 26.7532 59.7481 26.5379 59.1981C26.4324 58.9277 26.3179 58.6711 26.1986 58.4099C25.9694 57.9194 25.7129 57.4519 25.4241 56.9891C25.2591 56.7234 25.1034 56.4621 24.9246 56.2099C24.8421 56.0954 24.7826 55.9669 24.6954 55.8569C25.6304 54.7202 26.6296 53.6752 27.6884 52.7312C27.7526 52.7862 27.8259 52.8274 27.8946 52.8824C28.9716 53.8129 30.1176 54.6516 31.3276 55.4079C31.5751 55.5636 31.8226 55.7149 32.0746 55.8616C33.2479 56.5446 34.4716 57.1404 35.7413 57.6446C36.0301 57.7591 36.3188 57.8601 36.6076 57.9609C37.9138 58.4284 39.2521 58.8134 40.6363 59.0791C40.8518 59.1204 41.0671 59.1434 41.2826 59.1754C42.7631 59.4229 44.2801 59.5834 45.8338 59.5834C47.3876 59.5834 48.9046 59.4229 50.3851 59.1754C50.6006 59.1386 50.8158 59.1159 51.0313 59.0791C52.4156 58.8134 53.7583 58.4284 55.0601 57.9609C55.3488 57.8554 55.6421 57.7591 55.9263 57.6446C57.2005 57.1404 58.4196 56.5401 59.593 55.8616C59.845 55.7149 60.0926 55.5636 60.34 55.4079C61.55 54.6516 62.7005 53.8129 63.773 52.8824C63.8373 52.8274 63.915 52.7907 63.9793 52.7312C65.038 53.6707 66.0373 54.7157 66.9723 55.8569C66.8853 55.9714 66.8255 56.0952 66.743 56.2099C66.5643 56.4619 66.4038 56.7232 66.2435 56.9891C65.9593 57.4521 65.698 57.9196 65.4735 58.4099C65.3543 58.6711 65.2353 58.9324 65.1298 59.1981C64.9143 59.7481 64.7448 60.3119 64.6028 60.8894C64.5433 61.1324 64.4698 61.3706 64.4195 61.6181C64.2682 62.4431 64.1675 63.2956 64.1675 64.1664C64.1675 65.0097 64.2682 65.8302 64.4195 66.6369C64.47 66.9256 64.5525 67.2006 64.6212 67.4849C64.7495 67.9891 64.9007 68.4794 65.0795 68.9606C65.1987 69.2769 65.3178 69.5839 65.4553 69.8911C65.666 70.3449 65.909 70.7756 66.1657 71.2019C66.3215 71.4631 66.4545 71.7381 66.6287 71.9856C67.0505 72.5906 67.5225 73.1544 68.0312 73.6861C68.2557 73.9199 68.5032 74.1169 68.7417 74.3324C69.0992 74.6579 69.466 74.9694 69.86 75.2536C70.1257 75.4461 70.4007 75.6294 70.6805 75.8036C71.1067 76.0694 71.5512 76.3078 72.0142 76.5278C72.2847 76.6561 72.5459 76.7983 72.83 76.9083C72.908 76.9403 72.9812 76.9863 73.0592 77.0183C72.9812 77.5913 72.885 78.1641 72.775 78.7278C72.752 78.7233 72.7245 78.7278 72.7017 78.7233C71.3175 78.5721 69.8647 78.5676 68.3155 78.8791C67.99 78.9433 67.6647 79.0808 67.3347 79.1633C66.9589 79.2596 66.583 79.3696 66.2072 79.4933C65.781 79.6308 65.3639 79.7638 64.9422 79.9333C64.1722 80.2403 63.4115 80.5978 62.6552 81.0103C62.4077 81.1478 62.1647 81.3083 61.9219 81.4548C61.2939 81.8306 60.6752 82.2386 60.0657 82.6786C59.8365 82.8481 59.6074 83.0131 59.3782 83.1919C58.5807 83.8151 57.8015 84.4798 57.059 85.2176C56.3072 85.9694 55.6382 86.7621 55.0057 87.5689C54.8671 87.7523 54.7341 87.9311 54.6014 88.1143ZM71.9489 100.104C69.2814 102.772 66.1234 104.578 63.0481 105.192C60.3074 105.728 58.0157 105.251 56.5857 103.826C55.9899 103.23 55.6002 102.456 55.3389 101.594C55.3344 101.58 55.3389 101.567 55.3344 101.548C55.1969 101.081 55.1099 100.595 55.0687 100.086C55.0687 100.077 55.0687 100.068 55.0641 100.059C55.0274 99.605 55.0366 99.1283 55.0734 98.647C55.0871 98.4958 55.1054 98.34 55.1239 98.1795C55.1696 97.7945 55.2294 97.4003 55.3209 97.0016C55.4309 96.5248 55.5729 96.0528 55.7379 95.5761C55.8754 95.1728 56.0404 94.7741 56.2146 94.3661C56.3979 93.9536 56.5814 93.5456 56.8014 93.1378C56.9664 92.8308 57.1544 92.5236 57.3421 92.2166C57.5804 91.8361 57.8326 91.4558 58.0984 91.0846C58.2909 90.8141 58.4834 90.5391 58.6941 90.2733C59.1021 89.7646 59.5421 89.265 60.0049 88.7838C60.1057 88.6783 60.1929 88.5638 60.2982 88.463C60.4174 88.3438 60.5457 88.2476 60.6649 88.1285C61.1369 87.6793 61.6182 87.253 62.1132 86.859C62.4202 86.616 62.7319 86.4008 63.0436 86.1808C63.3599 85.9562 63.6806 85.7408 64.0061 85.539C64.3911 85.3008 64.7761 85.076 65.1656 84.8698C65.3949 84.7505 65.6239 84.6498 65.8531 84.5398C68.6674 83.229 71.4999 82.8255 73.7044 83.6048C73.7456 83.6185 73.7914 83.6093 73.8326 83.623C74.5247 83.8888 75.1619 84.228 75.6614 84.7276C78.8239 87.8943 77.1191 94.9391 71.9489 100.104ZM76.0053 73.1224C76.0008 73.1224 76.0008 73.1179 75.9961 73.1179C75.9136 73.0996 75.8404 73.0674 75.7624 73.0446C75.3131 72.9346 74.8731 72.8108 74.4516 72.6366C74.2133 72.5404 73.9933 72.4029 73.7641 72.2883C73.4984 72.1508 73.2324 72.0226 72.9804 71.8621C72.7466 71.7108 72.5359 71.5366 72.3158 71.3671C72.1051 71.2021 71.8896 71.0371 71.6926 70.8538C71.4818 70.6568 71.2893 70.4458 71.0968 70.2306C70.9273 70.0381 70.7623 69.8411 70.6063 69.6348C70.4321 69.4011 70.2671 69.1628 70.1159 68.9153C69.9738 68.6861 69.8501 68.4478 69.7309 68.2095C69.6071 67.962 69.4879 67.7145 69.3871 67.4578C69.2726 67.1598 69.1854 66.8483 69.0984 66.5366C69.0388 66.3166 68.9654 66.1011 68.9196 65.872C68.8188 65.3175 68.7501 64.7491 68.7501 64.167C68.7501 63.5391 68.8143 62.925 68.9381 62.3291C69.3001 60.5508 70.1938 58.9146 71.5368 57.6083C73.1868 55.9996 75.4326 55.0003 77.9168 55.0003C82.9721 54.9999 87.0831 59.1111 87.0831 64.1666C87.0831 69.2221 82.9719 73.3333 77.9164 73.3333C77.2613 73.3331 76.6241 73.2553 76.0053 73.1224Z" fill="#0060A7"/>
<path d="M50.815 64.1665C49.0045 64.1665 47.2767 64.7532 45.833 65.8257C44.3847 64.7532 42.6612 64.1665 40.851 64.1665C36.0155 64.1665 32.083 68.3695 32.083 73.5485C32.083 75.8447 32.9218 78.0815 34.4985 80.0155C36.804 82.8297 43.8392 90.58 44.1372 90.91C44.5727 91.3912 45.1867 91.6662 45.833 91.6662C46.4792 91.6662 47.0935 91.3912 47.5287 90.9145C47.8312 90.589 54.862 82.8388 57.1675 80.02C58.7442 78.0815 59.583 75.8493 59.583 73.5485C59.5827 68.3693 55.6502 64.1665 50.815 64.1665ZM53.6198 77.119C52.066 79.0165 48.1153 83.4257 45.8328 85.9602C43.5503 83.4257 39.5995 79.0165 38.0458 77.119C37.1338 75.996 36.6663 74.7997 36.6663 73.5485C36.6663 70.8993 38.5408 68.7498 40.8508 68.7498C42.0608 68.7498 43.2112 69.3548 44.0087 70.4043C44.8795 71.5455 46.7955 71.5455 47.6617 70.4043C48.4547 69.3548 49.605 68.7498 50.815 68.7498C53.125 68.7498 54.9995 70.8993 54.9995 73.5485C54.9995 74.7997 54.5322 75.996 53.6198 77.119Z" fill="#0060A7"/>
<path d="M25.208 9.16699C21.4175 9.16699 18.333 12.247 18.333 16.042C18.333 17.307 19.3597 18.3337 20.6247 18.3337C21.8897 18.3337 22.9165 17.307 22.9165 16.042C22.9165 14.777 23.9475 13.7502 25.208 13.7502C26.473 13.7502 27.4997 12.7235 27.4997 11.4585C27.4997 10.1935 26.473 9.16699 25.208 9.16699Z" fill="#0060A7"/>
</svg>
