<svg width="99" height="110" viewBox="0 0 99 110" fill="none" xmlns="http://www.w3.org/2000/svg">
<path d="M45.7428 61.3507H52.2614C53.1517 61.3507 53.8736 60.6289 53.8736 59.7386C53.8736 58.8483 53.1517 58.1265 52.2614 58.1265H45.7428C44.8524 58.1265 44.1306 58.8483 44.1306 59.7386C44.1306 60.6289 44.8522 61.3507 45.7428 61.3507Z" fill="#0060A7"/>
<path d="M41.6392 20.2148C40.9623 19.6368 39.9445 19.7167 39.3663 20.3936L22.624 39.9956C22.0458 40.6727 22.126 41.6902 22.8029 42.2685C23.1066 42.5279 23.4789 42.6547 23.8493 42.6547C24.3045 42.6547 24.757 42.4628 25.076 42.0896L41.8182 22.4877C42.3962 21.8106 42.3161 20.793 41.6392 20.2148Z" fill="#0060A7"/>
<path d="M22.7785 31.9246C23.0857 32.1976 23.4681 32.3319 23.849 32.3319C24.2935 32.3319 24.7361 32.1492 25.0545 31.7909L29.5799 26.6998C30.1714 26.0343 30.1114 25.0154 29.4459 24.4238C28.7802 23.8323 27.7614 23.8923 27.17 24.5578L22.6446 29.6489C22.0533 30.3142 22.1133 31.3331 22.7785 31.9246Z" fill="#0060A7"/>
<path d="M88.9262 90.0087C88.4872 88.6244 87.2169 87.6943 85.7647 87.6943H31.2235C30.3331 87.6943 29.6113 88.4161 29.6113 89.3065C29.6113 90.1968 30.3331 90.9186 31.2235 90.9186H85.7649C85.8053 90.9186 85.8408 90.9446 85.8528 90.9829L90.8201 106.656C90.8251 106.671 90.8341 106.7 90.8066 106.738C90.7791 106.776 90.7486 106.776 90.7322 106.776H7.2711C7.25477 106.776 7.22446 106.776 7.19673 106.738C7.16921 106.7 7.17824 106.671 7.18319 106.656L12.1505 90.9829C12.1628 90.9444 12.198 90.9186 12.2384 90.9186H23.9463C24.8366 90.9186 25.5584 90.1968 25.5584 89.3065C25.5584 88.4161 24.8366 87.6943 23.9463 87.6943H12.2387C10.7864 87.6943 9.51585 88.6244 9.07713 90.0087L4.1098 105.682C3.78672 106.701 3.96363 107.78 4.59516 108.643C5.22669 109.505 6.20214 110 7.2711 110H90.732C91.8012 110 92.7764 109.505 93.4079 108.643C94.0395 107.78 94.2164 106.701 93.8933 105.682L88.9262 90.0087Z" fill="#0060A7"/>
<path d="M91.5564 0H6.44707C2.89219 0 0 2.89219 0 6.44707V61.0482C0 64.6031 2.89219 67.4953 6.44707 67.4953H38.1025C37.9918 70.7342 37.6736 76.1082 36.9796 79.1214H30.0405C29.1501 79.1214 28.4283 79.8432 28.4283 80.7336C28.4283 81.6239 29.1501 82.3457 30.0405 82.3457H67.9635C68.8538 82.3457 69.5756 81.6239 69.5756 80.7336C69.5756 79.8432 68.8538 79.1214 67.9635 79.1214H61.0244C60.3303 76.1082 60.0122 70.7342 59.9015 67.4953H91.5569C95.1117 67.4953 98.0039 64.6031 98.0039 61.0482V6.44707C98.0035 2.89219 95.1113 0 91.5564 0V0ZM40.2714 79.1214C40.9826 75.4771 41.2399 70.1368 41.3276 67.4953H56.6757C56.7634 70.1368 57.0207 75.4771 57.7319 79.1214H40.2714ZM94.7792 61.0482C94.7792 62.8252 93.3334 64.271 91.5564 64.271H6.44707C4.67006 64.271 3.22429 62.8252 3.22429 61.0482V55.2056H94.7794V61.0482H94.7792ZM94.7792 51.9813H90.5442V28.1848C90.5442 27.2945 89.8224 26.5726 88.9321 26.5726C88.0417 26.5726 87.3199 27.2945 87.3199 28.1848V51.9813H10.6836V10.9286C10.6836 10.6937 10.8747 10.5026 11.1096 10.5026H86.8939C87.1288 10.5026 87.3199 10.6937 87.3199 10.9286V20.8083C87.3199 21.6986 88.0417 22.4204 88.9321 22.4204C89.8224 22.4204 90.5442 21.6986 90.5442 20.8083V10.9286C90.5442 8.9158 88.9067 7.27829 86.8939 7.27829H11.1096C9.09679 7.27829 7.45928 8.9158 7.45928 10.9286V51.9813H3.22429V6.44707C3.22429 4.67006 4.67006 3.22429 6.44707 3.22429H91.5564C93.3334 3.22429 94.7792 4.67006 94.7792 6.44707V51.9813Z" fill="#0060A7"/>
<path d="M23.9467 94.3501H21.7591C20.8688 94.3501 20.147 95.0719 20.147 95.9622C20.147 96.8526 20.8688 97.5744 21.7591 97.5744H23.9467C24.837 97.5744 25.5588 96.8526 25.5588 95.9622C25.5588 95.0719 24.837 94.3501 23.9467 94.3501Z" fill="#0060A7"/>
<path d="M30.5091 97.5744H32.6967C33.587 97.5744 34.3088 96.8526 34.3088 95.9622C34.3088 95.0719 33.587 94.3501 32.6967 94.3501H30.5091C29.6188 94.3501 28.897 95.0719 28.897 95.9622C28.897 96.8526 29.6188 97.5744 30.5091 97.5744Z" fill="#0060A7"/>
<path d="M39.2596 97.5744H41.4472C42.3375 97.5744 43.0593 96.8526 43.0593 95.9622C43.0593 95.0719 42.3375 94.3501 41.4472 94.3501H39.2596C38.3693 94.3501 37.6475 95.0719 37.6475 95.9622C37.6475 96.8526 38.3693 97.5744 39.2596 97.5744Z" fill="#0060A7"/>
<path d="M48.0101 97.5744H50.1977C51.088 97.5744 51.8098 96.8526 51.8098 95.9622C51.8098 95.0719 51.088 94.3501 50.1977 94.3501H48.0101C47.1198 94.3501 46.3979 95.0719 46.3979 95.9622C46.3979 96.8526 47.1198 97.5744 48.0101 97.5744Z" fill="#0060A7"/>
<path d="M56.7603 97.5744H58.9479C59.8382 97.5744 60.5601 96.8526 60.5601 95.9622C60.5601 95.0719 59.8382 94.3501 58.9479 94.3501H56.7603C55.87 94.3501 55.1482 95.0719 55.1482 95.9622C55.1482 96.8526 55.87 97.5744 56.7603 97.5744Z" fill="#0060A7"/>
<path d="M65.5111 97.5744H67.6986C68.589 97.5744 69.3108 96.8526 69.3108 95.9622C69.3108 95.0719 68.589 94.3501 67.6986 94.3501H65.5111C64.6207 94.3501 63.8989 95.0719 63.8989 95.9622C63.8989 96.8526 64.6207 97.5744 65.5111 97.5744Z" fill="#0060A7"/>
<path d="M74.0572 97.5744H76.2448C77.1351 97.5744 77.8569 96.8526 77.8569 95.9622C77.8569 95.0719 77.1351 94.3501 76.2448 94.3501H74.0572C73.1669 94.3501 72.4451 95.0719 72.4451 95.9622C72.4451 96.8526 73.1669 97.5744 74.0572 97.5744Z" fill="#0060A7"/>
<path d="M23.9467 100.12H21.7591C20.8688 100.12 20.147 100.842 20.147 101.732C20.147 102.623 20.8688 103.344 21.7591 103.344H23.9467C24.837 103.344 25.5588 102.623 25.5588 101.732C25.5588 100.842 24.837 100.12 23.9467 100.12Z" fill="#0060A7"/>
<path d="M30.5091 103.344H32.6967C33.587 103.344 34.3088 102.623 34.3088 101.732C34.3088 100.842 33.587 100.12 32.6967 100.12H30.5091C29.6188 100.12 28.897 100.842 28.897 101.732C28.897 102.623 29.6188 103.344 30.5091 103.344Z" fill="#0060A7"/>
<path d="M39.2596 103.344H41.4472C42.3375 103.344 43.0593 102.623 43.0593 101.732C43.0593 100.842 42.3375 100.12 41.4472 100.12H39.2596C38.3693 100.12 37.6475 100.842 37.6475 101.732C37.6475 102.623 38.3693 103.344 39.2596 103.344Z" fill="#0060A7"/>
<path d="M48.0101 103.344H50.1977C51.088 103.344 51.8098 102.623 51.8098 101.732C51.8098 100.842 51.088 100.12 50.1977 100.12H48.0101C47.1198 100.12 46.3979 100.842 46.3979 101.732C46.3979 102.623 47.1198 103.344 48.0101 103.344Z" fill="#0060A7"/>
<path d="M56.7603 103.344H58.9479C59.8382 103.344 60.5601 102.623 60.5601 101.732C60.5601 100.842 59.8382 100.12 58.9479 100.12H56.7603C55.87 100.12 55.1482 100.842 55.1482 101.732C55.1482 102.623 55.87 103.344 56.7603 103.344Z" fill="#0060A7"/>
<path d="M65.5111 103.344H67.6986C68.589 103.344 69.3108 102.623 69.3108 101.732C69.3108 100.842 68.589 100.12 67.6986 100.12H65.5111C64.6207 100.12 63.8989 100.842 63.8989 101.732C63.8989 102.623 64.6207 103.344 65.5111 103.344Z" fill="#0060A7"/>
<path d="M74.0572 103.344H76.2448C77.1351 103.344 77.8569 102.623 77.8569 101.732C77.8569 100.842 77.1351 100.12 76.2448 100.12H74.0572C73.1669 100.12 72.4451 100.842 72.4451 101.732C72.4451 102.623 73.1669 103.344 74.0572 103.344Z" fill="#0060A7"/>
</svg>
