<svg width="118" height="90" viewBox="0 0 118 90" fill="none" xmlns="http://www.w3.org/2000/svg">
<path d="M41.1099 83.8478C37.3295 85.4984 32.9535 83.9104 31.3855 80.3191L14.2797 41.1406C12.7116 37.5492 14.5217 33.2604 18.3021 31.6098C22.0825 29.9593 26.4585 31.5472 28.0265 35.1386L45.1323 74.317C46.7004 77.9084 44.8902 82.1972 41.1099 83.8478Z" stroke="#0060A7" stroke-width="4" stroke-miterlimit="10" stroke-linecap="round" stroke-linejoin="round"/>
<path d="M23.4199 79.5685C19.8916 81.109 15.7443 79.4826 14.2038 75.9542L5.80095 56.7086C4.26043 53.1803 5.88684 49.033 9.41519 47.4925C12.9435 45.952 17.0908 47.5784 18.6313 51.1067L27.0342 70.3523C28.5747 73.8807 26.9483 78.0279 23.4199 79.5685Z" stroke="#0060A7" stroke-width="4" stroke-miterlimit="10" stroke-linecap="round" stroke-linejoin="round"/>
<path d="M76.9555 6.00093C80.7358 4.35037 85.1118 5.9383 86.6798 9.52966L103.786 48.7082C105.354 52.2995 103.544 56.5884 99.7632 58.2389C95.9828 59.8895 91.6068 58.3016 90.0388 54.7102L72.933 15.5317C71.365 11.9403 73.1751 7.65149 76.9555 6.00093Z" stroke="#0060A7" stroke-width="4" stroke-miterlimit="10" stroke-linecap="round" stroke-linejoin="round"/>
<path d="M94.6457 10.2801C98.174 8.73958 102.321 10.366 103.862 13.8943L112.265 33.1399C113.805 36.6683 112.179 40.8155 108.65 42.3561C105.122 43.8966 100.975 42.2702 99.4343 38.7418L91.0314 19.4962C89.4909 15.9679 91.1173 11.8206 94.6457 10.2801Z" stroke="#0060A7" stroke-width="4" stroke-miterlimit="10" stroke-linecap="round" stroke-linejoin="round"/>
<path d="M36.7798 55.186L81.6861 35.5794" stroke="#0060A7" stroke-width="4" stroke-miterlimit="10" stroke-linecap="round" stroke-linejoin="round"/>
</svg>
