<svg width="106" height="106" viewBox="0 0 106 106" fill="none" xmlns="http://www.w3.org/2000/svg">
<path d="M105.499 38.1135L88.4027 21.0169C88.1567 20.7716 87.8419 20.607 87.5 20.545L68.6937 17.1257C67.7647 16.9566 66.8746 17.5728 66.7056 18.5018C66.6872 18.6022 66.678 18.7041 66.678 18.8063C66.6731 19.3495 66.6243 19.8915 66.5327 20.4271L54.7103 17.4728V16.9257C59.336 15.9815 62.3205 11.4661 61.3763 6.84036C60.4322 2.21465 55.9167 -0.769786 51.291 0.174376C47.3116 0.98668 44.4532 4.48679 44.4524 8.54831H47.8717C47.8717 5.71561 50.168 3.41932 53.0007 3.41932C55.8334 3.41932 58.1297 5.71561 58.1297 8.54831C58.1297 11.381 55.8334 13.6773 53.0007 13.6773C52.0565 13.6773 51.291 14.4428 51.291 15.387V17.471L39.4687 20.4271C39.377 19.8915 39.3283 19.3495 39.3234 18.8063C39.3236 18.2992 39.0988 17.8183 38.7096 17.4933C38.3226 17.1637 37.8065 17.0285 37.3077 17.1257L18.5014 20.545C18.1594 20.607 17.8447 20.7716 17.5987 21.0169L0.502039 38.1135C-0.165371 38.7812 -0.165371 39.8634 0.502039 40.531L14.1793 54.2083C14.847 54.8757 15.9292 54.8757 16.5968 54.2083L20.5171 50.288V61.5479H8.54943C3.84251 61.5342 0.0158532 65.3391 0.00217593 70.046C-0.00573127 72.7646 1.28378 75.3237 3.47343 76.9349C-0.303427 79.6945 -1.12813 84.9934 1.6317 88.7702C2.14695 89.4755 2.7682 90.0967 3.47343 90.612C-0.317531 93.4017 -1.12919 98.7367 1.66055 102.528C3.27191 104.717 5.83106 106.007 8.54943 105.999H70.0973C70.5508 105.999 70.9855 105.819 71.306 105.498L84.9834 91.8207C85.2999 91.4986 85.4747 91.0635 85.4689 90.612H85.4843V50.288L89.4045 54.2083C90.0722 54.8757 91.1544 54.8757 91.822 54.2083L105.499 40.531C106.167 39.8634 106.167 38.7809 105.499 38.1135ZM53.0007 20.5672L65.4333 23.6754C62.8565 28.0678 58.091 30.7066 53.0007 30.5602C47.9104 30.7066 43.1449 28.0678 40.568 23.6754L53.0007 20.5672ZM3.42043 70.0962C3.42043 67.2635 5.71673 64.9672 8.54943 64.9672H46.162C48.9947 64.9672 51.291 67.2635 51.291 70.0962C51.291 72.9289 48.9947 75.2252 46.162 75.2252H8.54943C5.71673 75.2252 3.42043 72.9287 3.42043 70.0962ZM3.42043 83.7735C3.42043 80.9408 5.71673 78.6445 8.54943 78.6445H46.162C48.9947 78.6445 51.291 80.9408 51.291 83.7735C51.291 86.6062 48.9947 88.9025 46.162 88.9025H8.54943C5.71673 88.9025 3.42043 86.606 3.42043 83.7735ZM46.162 102.58H42.7427H8.54943C5.71673 102.58 3.42043 100.284 3.42043 97.4508C3.42043 94.6181 5.71673 92.3218 8.54943 92.3218H46.162C48.9947 92.3218 51.291 94.6181 51.291 97.4508C51.291 100.284 48.9947 102.58 46.162 102.58ZM71.807 100.162V92.3218H79.6475L71.807 100.162ZM90.6133 50.5821L79.8544 39.8232L77.4369 42.2407L82.065 46.8687V88.9025H70.0973C69.1532 88.9025 68.3876 89.668 68.3876 90.6122V102.58H52.9562C55.8017 98.8934 55.1202 93.5983 51.434 90.7526C51.3722 90.7049 51.3098 90.6581 51.2466 90.6122C55.0234 87.8526 55.8481 82.5537 53.0885 78.7766C52.5733 78.0714 51.952 77.4501 51.2466 76.9349C55.0377 74.1451 55.8494 68.8101 53.0594 65.0191C51.4464 62.8271 48.8834 61.5374 46.162 61.5479H23.9364V46.8687L28.5645 42.2407L26.147 39.8232L15.3881 50.5821L4.12823 39.3223L19.6383 23.8122L36.0511 20.8288C37.1692 28.2419 44.3429 33.9796 52.9973 33.9796C61.6516 33.9796 68.8253 28.2419 69.9434 20.8288L86.3562 23.8122L101.873 39.3223L90.6133 50.5821Z" fill="#0060A7"/>
<path d="M47.8717 68.3862H6.83972V71.8056H47.8717V68.3862Z" fill="#0060A7"/>
<path d="M46.162 82.0635H6.83972V85.4828H46.162V82.0635Z" fill="#0060A7"/>
<path d="M46.162 95.7407H6.83972V99.16H46.162V95.7407Z" fill="#0060A7"/>
</svg>
