<svg width="104" height="107" viewBox="0 0 104 107" fill="none" xmlns="http://www.w3.org/2000/svg">
<path d="M12.0313 68.75C11.0114 68.75 10.0145 69.0524 9.16659 69.619C8.31865 70.1856 7.65776 70.9909 7.2675 71.933C6.87723 72.8752 6.77512 73.912 6.97408 74.9122C7.17303 75.9124 7.66412 76.8312 8.38523 77.5523C9.10635 78.2734 10.0251 78.7645 11.0253 78.9634C12.0255 79.1624 13.0623 79.0603 14.0045 78.67C14.9466 78.2797 15.7519 77.6188 16.3185 76.7709C16.8851 75.923 17.1875 74.9261 17.1875 73.9062C17.186 72.5392 16.6422 71.2286 15.6756 70.2619C14.7089 69.2953 13.3983 68.7515 12.0313 68.75ZM12.0313 75.625C11.6913 75.625 11.359 75.5242 11.0764 75.3353C10.7937 75.1465 10.5734 74.878 10.4433 74.564C10.3132 74.2499 10.2792 73.9043 10.3455 73.5709C10.4118 73.2375 10.5755 72.9313 10.8159 72.6909C11.0563 72.4505 11.3625 72.2868 11.6959 72.2205C12.0293 72.1542 12.3749 72.1882 12.689 72.3183C13.0031 72.4484 13.2715 72.6687 13.4603 72.9514C13.6492 73.234 13.75 73.5663 13.75 73.9062C13.7495 74.3619 13.5682 74.7988 13.246 75.121C12.9238 75.4432 12.4869 75.6245 12.0313 75.625Z" fill="#0060A7"/>
<path d="M77.3438 68.75C76.3239 68.75 75.327 69.0524 74.4791 69.619C73.6312 70.1856 72.9703 70.9909 72.58 71.933C72.1897 72.8752 72.0876 73.912 72.2866 74.9122C72.4855 75.9124 72.9766 76.8312 73.6977 77.5523C74.4189 78.2734 75.3376 78.7645 76.3378 78.9634C77.338 79.1624 78.3748 79.0603 79.317 78.67C80.2591 78.2797 81.0644 77.6188 81.631 76.7709C82.1976 75.923 82.5 74.9261 82.5 73.9062C82.4985 72.5392 81.9547 71.2286 80.9881 70.2619C80.0214 69.2953 78.7108 68.7515 77.3438 68.75ZM77.3438 75.625C77.0038 75.625 76.6715 75.5242 76.3889 75.3353C76.1062 75.1465 75.8859 74.878 75.7558 74.564C75.6258 74.2499 75.5917 73.9043 75.658 73.5709C75.7243 73.2375 75.888 72.9313 76.1284 72.6909C76.3688 72.4505 76.675 72.2868 77.0084 72.2205C77.3418 72.1542 77.6874 72.1882 78.0015 72.3183C78.3156 72.4484 78.584 72.6687 78.7728 72.9514C78.9617 73.234 79.0625 73.5663 79.0625 73.9062C79.062 74.3619 78.8808 74.7988 78.5585 75.121C78.2363 75.4432 77.7994 75.6245 77.3438 75.625Z" fill="#0060A7"/>
<path d="M89.3749 73.9063C89.3749 72.3091 89.0569 70.7278 88.4394 69.2548C87.8219 67.7818 86.9173 66.4465 85.7783 65.3267C84.6393 64.207 83.2888 63.3253 81.8055 62.7329C80.3221 62.1406 78.7357 61.8496 77.1387 61.8768C70.6178 61.9857 65.3124 67.4582 65.3124 74.076V79.8499C60.6041 78.5684 53.7373 77.3438 44.6874 77.3438C35.6376 77.3438 28.7707 78.5684 24.0624 79.8499V73.9063C24.0624 72.287 23.7356 70.6844 23.1014 69.1944C22.4672 67.7045 21.5388 66.3579 20.3718 65.2353C19.2048 64.1128 17.8232 63.2373 16.3097 62.6615C14.7963 62.0856 13.1822 61.8212 11.5641 61.8841C8.54037 62.0115 5.67473 63.2698 3.53472 65.4098C1.3947 67.5498 0.136388 70.4155 0.00896741 73.4392C-0.105747 76.4107 0.883451 79.3195 2.78592 81.6049C4.68838 83.8904 7.36946 85.3908 10.3124 85.817V92.8125C10.3145 94.6353 11.0395 96.3828 12.3283 97.6716C13.6172 98.9605 15.3647 99.6855 17.1874 99.6875V104.844C17.1874 105.3 17.3685 105.737 17.6909 106.059C18.0132 106.381 18.4504 106.563 18.9062 106.563H24.0624C24.3816 106.563 24.6945 106.474 24.966 106.306C25.2375 106.138 25.4569 105.898 25.5996 105.612L28.5621 99.6875H60.8127L63.7752 105.612C63.918 105.898 64.1374 106.138 64.4089 106.306C64.6804 106.474 64.9933 106.563 65.3124 106.563H70.4687C70.9245 106.563 71.3617 106.381 71.684 106.059C72.0063 105.737 72.1874 105.3 72.1874 104.844V99.6875C74.0102 99.6855 75.7577 98.9605 77.0465 97.6716C78.3354 96.3828 79.0604 94.6353 79.0624 92.8125V85.8151C81.9244 85.3981 84.5409 83.9657 86.4343 81.7793C88.3276 79.5929 89.3713 76.7985 89.3749 73.9063ZM23.0003 103.125H20.6249V99.6875H24.719L23.0003 103.125ZM68.7499 103.125H66.3746L64.6559 99.6875H68.7499V103.125ZM77.3437 82.5C76.8878 82.5 76.4507 82.6811 76.1283 83.0035C75.806 83.3258 75.6249 83.763 75.6249 84.2188V92.8125C75.6238 93.7239 75.2613 94.5976 74.6169 95.242C73.9725 95.8865 73.0988 96.249 72.1874 96.25H17.1874C16.2761 96.249 15.4024 95.8865 14.758 95.242C14.1135 94.5976 13.751 93.7239 13.7499 92.8125V84.2188C13.7499 83.763 13.5689 83.3258 13.2465 83.0035C12.9242 82.6811 12.487 82.5 12.0312 82.5C10.8743 82.5001 9.72933 82.2665 8.66489 81.8133C7.60045 81.3602 6.63846 80.6968 5.83659 79.8629C5.03472 79.029 4.40947 78.0418 3.99832 76.9604C3.58718 75.8791 3.3986 74.7258 3.44389 73.5698C3.53496 71.411 4.43339 69.3651 5.96127 67.8372C7.48915 66.3094 9.53506 65.4109 11.6939 65.3199C12.8499 65.2744 14.0031 65.4629 15.0845 65.8739C16.1659 66.285 17.1532 66.9101 17.9872 67.7119C18.8212 68.5137 19.4847 69.4757 19.9379 70.5401C20.3912 71.6045 20.6248 72.7494 20.6249 73.9063V80.9102C17.9155 81.8555 16.4918 82.638 16.3448 82.7207L18.0264 85.7188C18.1151 85.6694 27.1117 80.7813 44.6874 80.7813C62.2632 80.7813 71.2597 85.6694 71.3448 85.7169L73.03 82.7207C72.8831 82.638 71.4593 81.8547 68.7499 80.9102V74.076C68.7499 69.3224 72.5389 65.3916 77.1961 65.3138C78.3308 65.2942 79.4581 65.4995 80.5131 65.9178C81.568 66.3362 82.5296 66.9594 83.3424 67.7514C84.1552 68.5434 84.8031 69.4885 85.2486 70.5323C85.6942 71.576 85.9286 72.6977 85.9384 73.8325C85.9481 74.9673 85.733 76.0928 85.3054 77.1441C84.8778 78.1953 84.2463 79.1514 83.4472 79.9573C82.6481 80.7631 81.6974 81.4027 80.6498 81.8392C79.6022 82.2756 78.4785 82.5002 77.3437 82.5Z" fill="#0060A7"/>
<path d="M13.75 49.8438C13.7511 48.9324 14.1136 48.0587 14.758 47.4143C15.4024 46.7698 16.2761 46.4073 17.1875 46.4062H72.1875C73.0989 46.4073 73.9726 46.7698 74.617 47.4143C75.2614 48.0587 75.6239 48.9324 75.625 49.8438V58.4375H79.0625V49.8438C79.0605 48.021 78.3355 46.2735 77.0466 44.9847C75.7577 43.6958 74.0102 42.9708 72.1875 42.9688H17.1875C15.3648 42.9708 13.6173 43.6958 12.3284 44.9847C11.0395 46.2735 10.3145 48.021 10.3125 49.8438V58.4375H13.75V49.8438Z" fill="#0060A7"/>
<path d="M34.375 53.2812H37.8125V56.7188H34.375V53.2812Z" fill="#0060A7"/>
<path d="M42.9688 61.875H46.4062V65.3125H42.9688V61.875Z" fill="#0060A7"/>
<path d="M25.7812 61.875H29.2188V65.3125H25.7812V61.875Z" fill="#0060A7"/>
<path d="M34.375 70.4688H37.8125V73.9062H34.375V70.4688Z" fill="#0060A7"/>
<path d="M51.5625 53.2812H55V56.7188H51.5625V53.2812Z" fill="#0060A7"/>
<path d="M60.1562 61.875H63.5938V65.3125H60.1562V61.875Z" fill="#0060A7"/>
<path d="M51.5625 70.4688H55V73.9062H51.5625V70.4688Z" fill="#0060A7"/>
<path d="M96.25 0H48.125C46.3023 0.00204712 44.5548 0.727033 43.2659 2.0159C41.977 3.30477 41.252 5.05227 41.25 6.875V8.59375H44.6875V6.875C44.6886 5.96365 45.0511 5.08994 45.6955 4.44551C46.3399 3.80109 47.2136 3.43858 48.125 3.4375H70.4688V39.5312H73.9062V3.4375H96.25C97.1614 3.43858 98.0351 3.80109 98.6795 4.44551C99.3239 5.08994 99.6864 5.96365 99.6875 6.875V92.8125C99.6864 93.7238 99.3239 94.5976 98.6795 95.242C98.0351 95.8864 97.1614 96.2489 96.25 96.25H80.7812V99.6875H84.8753L87.8378 105.612C87.9805 105.898 88.2 106.138 88.4715 106.306C88.743 106.474 89.0558 106.562 89.375 106.562H94.5312C94.9871 106.562 95.4243 106.381 95.7466 106.059C96.0689 105.737 96.25 105.3 96.25 104.844V99.6875C98.0727 99.6855 99.8202 98.9605 101.109 97.6716C102.398 96.3827 103.123 94.6352 103.125 92.8125V6.875C103.123 5.05227 102.398 3.30477 101.109 2.0159C99.8202 0.727033 98.0727 0.00204712 96.25 0ZM92.8125 103.125H90.4372L88.7184 99.6875H92.8125V103.125Z" fill="#0060A7"/>
<path d="M12.0312 36.0938H27.4999V39.5312H30.9374V36.0938H46.4062C46.6439 36.0937 46.8791 36.0444 47.0968 35.9489C47.3145 35.8533 47.51 35.7137 47.671 35.5387C47.832 35.3637 47.9549 35.1573 48.032 34.9324C48.1091 34.7075 48.1387 34.4691 48.1189 34.2321L46.4002 13.6071C46.3643 13.1775 46.1684 12.7771 45.8511 12.4852C45.5339 12.1933 45.1185 12.0313 44.6874 12.0312H30.9374V8.59375H27.4999V12.0312H13.7499C13.3188 12.0313 12.9035 12.1933 12.5862 12.4852C12.269 12.7771 12.073 13.1775 12.0372 13.6071L10.3184 34.2321C10.2987 34.4691 10.3283 34.7075 10.4054 34.9324C10.4825 35.1573 10.6054 35.3637 10.7664 35.5387C10.9274 35.7137 11.1229 35.8533 11.3406 35.9489C11.5583 36.0444 11.7934 36.0937 12.0312 36.0938ZM15.3314 15.4688H43.106L44.5383 32.6562H13.899L15.3314 15.4688Z" fill="#0060A7"/>
</svg>
