<svg width="93" height="104" viewBox="0 0 93 104" fill="none" xmlns="http://www.w3.org/2000/svg">
<path d="M92.6421 3.83071C92.3795 2.84363 91.8297 1.95677 91.0623 1.28262C90.295 0.608473 89.3447 0.17741 88.332 0.0441057C87.3194 -0.0891988 86.2899 0.081262 85.3743 0.533868C84.4586 0.986473 83.698 1.70083 83.1889 2.58633L61.8764 39.5068V32.6645C61.8764 30.8411 61.1521 29.0924 59.8628 27.8031C58.5735 26.5138 56.8248 25.7895 55.0014 25.7895H46.4077V22.352H55.0014C55.4573 22.352 55.8945 22.1709 56.2168 21.8485C56.5391 21.5262 56.7202 21.089 56.7202 20.6332C56.7202 20.1774 56.5391 19.7402 56.2168 19.4179C55.8945 19.0955 55.4573 18.9145 55.0014 18.9145V13.7582C55.0014 13.3024 54.8204 12.8652 54.498 12.5429C54.1757 12.2205 53.7385 12.0395 53.2827 12.0395H46.4077C45.9518 12.0395 45.5147 12.2205 45.1923 12.5429C44.87 12.8652 44.6889 13.3024 44.6889 13.7582V18.9145C44.2331 18.9145 43.7959 19.0955 43.4736 19.4179C43.1513 19.7402 42.9702 20.1774 42.9702 20.6332V26.0335C41.4987 26.4134 40.1945 27.2702 39.2616 28.47C38.3287 29.6697 37.8196 31.1447 37.8139 32.6645V43.0749C37.0336 43.3299 36.3234 43.763 35.7394 44.3399C35.3776 44.7008 34.8874 44.9034 34.3764 44.9034C33.8654 44.9034 33.3753 44.7008 33.0135 44.3399C31.992 43.3635 30.6333 42.8186 29.2202 42.8186C27.8071 42.8186 26.4484 43.3635 25.4269 44.3399C24.3477 45.4375 23.4781 46.7231 22.8608 48.1332H20.47L18.4952 43.7607C18.1444 42.9836 18.0949 42.104 18.3563 41.2924C18.6177 40.4809 19.1713 39.7955 19.9097 39.3693L26.7125 35.442C27.4501 35.0126 28.3214 34.8742 29.1556 35.0539C29.9899 35.2335 30.727 35.7182 31.2225 36.413C31.4887 36.7832 31.8911 37.0324 32.3411 37.1059C32.791 37.1794 33.2518 37.0711 33.6219 36.8049C33.9921 36.5387 34.2413 36.1364 34.3148 35.6864C34.3883 35.2364 34.28 34.7757 34.0138 34.4056C33.324 33.4461 32.3972 32.6821 31.3238 32.188C30.2504 31.6939 29.0673 31.4868 27.8899 31.5868L24.968 26.5251L22.3899 22.0563L23.8783 21.197L29.8321 17.7595C30.0277 17.6467 30.1991 17.4966 30.3367 17.3176C30.4743 17.1386 30.5752 16.9342 30.6338 16.7162C30.6924 16.4982 30.7074 16.2708 30.6781 16.0469C30.6488 15.8231 30.5756 15.6072 30.4628 15.4116L27.0253 9.4579C26.9125 9.26221 26.7622 9.09069 26.583 8.95314C26.4038 8.8156 26.1992 8.71473 25.981 8.6563C25.7628 8.59788 25.5352 8.58305 25.3112 8.61265C25.0873 8.64225 24.8714 8.71571 24.6758 8.82883L18.7221 12.2663L0.860814 22.5788C0.664898 22.6917 0.493175 22.8421 0.355482 23.0214C0.217789 23.2008 0.116833 23.4055 0.0583967 23.6239C-3.93006e-05 23.8423 -0.0148063 24.0701 0.014941 24.2943C0.0446882 24.5184 0.118365 24.7345 0.231752 24.9301L3.66925 30.8838C3.89718 31.2786 4.27258 31.5666 4.71288 31.6846C5.15318 31.8026 5.6223 31.7408 6.01706 31.5129C6.60381 31.174 7.25161 30.954 7.92343 30.8656C8.59525 30.7771 9.2779 30.822 9.93237 30.9976C10.5868 31.1732 11.2003 31.4761 11.7376 31.8889C12.2749 32.3017 12.7256 32.8164 13.0639 33.4035L15.9858 38.4635C15.3108 39.4337 14.8988 40.5624 14.7901 41.7393C14.6813 42.9162 14.8795 44.1012 15.3653 45.1787L16.6974 48.1332H8.59519C8.13935 48.1332 7.70218 48.3143 7.37985 48.6366C7.05752 48.9589 6.87644 49.3961 6.87644 49.852C6.87644 50.3078 7.05752 50.745 7.37985 51.0673C7.70218 51.3896 8.13935 51.5707 8.59519 51.5707H21.8296L21.338 55.0082H8.59519C8.13935 55.0082 7.70218 55.1893 7.37985 55.5116C7.05752 55.8339 6.87644 56.2711 6.87644 56.727C6.87644 57.1828 7.05752 57.62 7.37985 57.9423C7.70218 58.2646 8.13935 58.4457 8.59519 58.4457H12.2768L12.8061 61.8832H8.59519C8.13935 61.8832 7.70218 62.0643 7.37985 62.3866C7.05752 62.7089 6.87644 63.1461 6.87644 63.602C6.87644 81.6093 22.2971 96.2582 41.2514 96.2582C48.679 96.2734 55.9223 93.9472 61.9521 89.6101L60.4017 99.6957H22.1011L21.2675 94.2782C21.1915 93.8345 20.9444 93.4384 20.5794 93.175C20.2144 92.9115 19.7607 92.8018 19.3156 92.8693C18.8706 92.9368 18.4698 93.1763 18.1994 93.5361C17.929 93.896 17.8106 94.3476 17.8696 94.7938L18.9283 101.669C18.9892 102.076 19.1941 102.447 19.5057 102.716C19.8173 102.985 20.215 103.133 20.6264 103.133H61.8764C62.2869 103.133 62.6837 102.986 62.9952 102.719C63.3067 102.451 63.5122 102.081 63.5746 101.676L65.9464 86.2654C68.9913 83.3254 71.4165 79.8053 73.079 75.9129C74.7416 72.0205 75.6077 67.8345 75.6264 63.602C75.6264 63.1461 75.4454 62.7089 75.123 62.3866C74.8007 62.0643 74.3635 61.8832 73.9077 61.8832H69.6967L70.2261 58.4457H73.9077C74.3635 58.4457 74.8007 58.2646 75.123 57.9423C75.4454 57.62 75.6264 57.1828 75.6264 56.727V49.852C75.6264 49.3961 75.4454 48.9589 75.123 48.6366C74.8007 48.3143 74.3635 48.1332 73.9077 48.1332H68.803L74.975 37.4443C75.1994 37.0497 75.2585 36.5825 75.1396 36.1445C75.0207 35.7065 74.7333 35.3333 74.3403 35.1063C73.9472 34.8794 73.4804 34.8171 73.0416 34.9331C72.6028 35.0491 72.2277 35.334 71.9982 35.7256L64.8327 48.1332H60.8658L86.1693 4.30508C86.2783 4.10248 86.4269 3.92383 86.6062 3.77973C86.7856 3.63562 86.992 3.52899 87.2134 3.46616C87.4347 3.40332 87.6664 3.38557 87.8947 3.41393C88.123 3.4423 88.3433 3.51622 88.5425 3.63131C88.7417 3.7464 88.9158 3.90032 89.0545 4.08393C89.1931 4.26755 89.2934 4.47713 89.3496 4.70025C89.4057 4.92337 89.4165 5.15549 89.3812 5.38285C89.346 5.61021 89.2654 5.82818 89.1444 6.02383L75.4357 29.7718C75.321 29.9673 75.2462 30.1836 75.2155 30.4082C75.1848 30.6328 75.1988 30.8612 75.2567 31.0804C75.3147 31.2995 75.4154 31.505 75.5531 31.6851C75.6908 31.8651 75.8627 32.0162 76.059 32.1295C76.2553 32.2429 76.4721 32.3162 76.6969 32.3455C76.9216 32.3747 77.15 32.3591 77.3687 32.2998C77.5875 32.2404 77.7923 32.1383 77.9715 31.9994C78.1506 31.8605 78.3005 31.6876 78.4125 31.4905L92.1264 7.74258C92.4662 7.1568 92.6867 6.50956 92.7752 5.83818C92.8637 5.16679 92.8185 4.48453 92.6421 3.83071ZM18.6155 36.1466L16.8967 33.1698L19.8736 31.451L22.8505 29.7323L24.5693 32.7091L18.6155 36.1466ZM24.9061 12.6685L26.6249 15.6454L23.648 17.3641L22.7886 15.8757L21.9292 14.3873L24.9061 12.6685ZM8.578 27.3862C7.65787 27.3864 6.7438 27.535 5.87097 27.8262L4.06628 24.6998L18.9507 16.106L19.81 17.5945L20.6694 19.0829L19.181 19.9423C18.7862 20.1702 18.4982 20.5456 18.3802 20.9859C18.2622 21.4262 18.324 21.8953 18.5519 22.2901L21.13 26.7588L19.2394 27.8537L15.0336 30.2823C14.2237 29.3707 13.2297 28.6413 12.1173 28.1421C11.0048 27.6429 9.79908 27.3853 8.57972 27.3862H8.578ZM41.2514 41.2582V37.8207H58.4389V41.2582H41.2514ZM48.1264 15.477H51.5639V18.9145H48.1264V15.477ZM44.6889 29.227H55.0014C55.9131 29.227 56.7875 29.5891 57.4321 30.2338C58.0768 30.8784 58.4389 31.7528 58.4389 32.6645V34.3832H41.2514V32.6645C41.2514 31.7528 41.6136 30.8784 42.2583 30.2338C42.9029 29.5891 43.7773 29.227 44.6889 29.227ZM20.855 58.4457L18.3921 75.6332L15.7555 58.4457H20.855ZM13.3355 65.3207L15.5699 79.8166C12.512 75.5674 10.7093 70.5446 10.3672 65.3207H13.3355ZM72.1357 65.3207C71.7948 70.5435 69.9939 75.5656 66.9382 79.8149L69.1674 65.3207H72.1357ZM72.1889 55.0082H52.7911C52.3353 55.0082 51.8981 55.1893 51.5758 55.5116C51.2535 55.8339 51.0724 56.2711 51.0724 56.727C51.0724 57.1828 51.2535 57.62 51.5758 57.9423C51.8981 58.2646 52.3353 58.4457 52.7911 58.4457H66.7474L62.7238 84.6016C56.9524 89.7793 49.5043 92.6969 41.7517 92.8169C33.9991 92.9369 26.4643 90.2513 20.5353 85.2548L24.9027 82.6337C25.6385 82.1915 26.4896 81.9789 27.347 82.0233C28.2044 82.0677 29.0289 82.367 29.7152 82.8829C31.0608 83.8848 32.6937 84.426 34.3713 84.426C36.0489 84.426 37.6818 83.8848 39.0274 82.8829C39.7136 82.367 40.5382 82.0677 41.3956 82.0233C42.2529 81.9789 43.104 82.1915 43.8399 82.6337C44.5783 83.0802 45.4283 83.3078 46.291 83.2899C47.1538 83.2721 47.9937 83.0095 48.713 82.5328C49.4322 82.0561 50.0013 81.3849 50.3539 80.5973C50.7065 79.8097 50.8281 78.9382 50.7046 78.0841L49.5925 70.3051C49.528 69.8538 49.2869 69.4466 48.9222 69.1731C48.5575 68.8996 48.099 68.7822 47.6478 68.8467C47.1965 68.9112 46.7893 69.1524 46.5158 69.5171C46.2423 69.8818 46.1249 70.3402 46.1894 70.7915L47.3014 78.5705C47.3349 78.7804 47.3064 78.9955 47.2194 79.1893C47.1324 79.3832 46.9906 79.5475 46.8116 79.662C46.6374 79.7825 46.4317 79.8491 46.2199 79.8537C46.0082 79.8583 45.7997 79.8006 45.6205 79.6877C44.689 79.1352 43.6521 78.7839 42.5766 78.6565L41.2514 60.0424C41.2354 59.8167 41.1751 59.5964 41.0739 59.394C40.9727 59.1916 40.8327 59.0111 40.6617 58.8628C40.4908 58.7146 40.2923 58.6014 40.0777 58.5298C39.863 58.4583 39.6364 58.4297 39.4107 58.4457C39.1849 58.4617 38.9646 58.5221 38.7622 58.6232C38.5598 58.7244 38.3793 58.8645 38.2311 59.0354C38.0828 59.2063 37.9696 59.4048 37.8981 59.6195C37.8265 59.8341 37.7979 60.0608 37.8139 60.2865L39.1511 78.9899C38.3666 79.2519 37.6291 79.6378 36.9666 80.1329C36.2168 80.6904 35.3073 80.9915 34.373 80.9915C33.4387 80.9915 32.5292 80.6904 31.7794 80.1329C31.1948 79.6985 30.5528 79.3474 29.8716 79.0896L32.6405 56.9401C32.6856 56.4936 32.5543 56.0471 32.2746 55.6961C31.9949 55.3451 31.589 55.1175 31.1436 55.0618C30.6983 55.0062 30.2489 55.1269 29.8914 55.3982C29.5339 55.6695 29.2967 56.0699 29.2305 56.5138L26.4702 78.6066C25.2893 78.7072 24.147 79.0764 23.1307 79.686L21.118 80.8891L25.243 51.978C25.314 51.487 25.4244 51.0025 25.573 50.5291L25.5885 50.4948C26.0343 49.0885 26.8098 47.8092 27.8503 46.7634C28.2122 46.4025 28.7023 46.1999 29.2133 46.1999C29.7243 46.1999 30.2145 46.4025 30.5763 46.7634C31.5978 47.7398 32.9565 48.2847 34.3696 48.2847C35.7827 48.2847 37.1413 47.7398 38.1628 46.7634C38.5247 46.4025 39.0148 46.1999 39.5258 46.1999C40.0368 46.1999 40.527 46.4025 40.8888 46.7634C41.9283 47.8092 42.7037 49.0878 43.1507 50.493L43.1661 50.5291C43.3156 51.0029 43.4259 51.488 43.4961 51.9798L45.2149 63.9784C45.2414 64.2064 45.3133 64.4269 45.4264 64.6267C45.5395 64.8265 45.6914 65.0017 45.8733 65.1418C46.0552 65.2819 46.2634 65.3841 46.4854 65.4425C46.7075 65.5008 46.939 65.5141 47.1663 65.4815C47.3936 65.4488 47.612 65.371 47.8087 65.2526C48.0054 65.1341 48.1764 64.9775 48.3116 64.7919C48.4467 64.6063 48.5433 64.3955 48.5957 64.1719C48.648 63.9483 48.655 63.7166 48.6163 63.4902L46.9233 51.5707H72.1889V55.0082ZM45.8921 48.1332C45.3293 46.8712 44.5635 45.71 43.625 44.6957H58.4389V45.4605L56.8921 48.1332H45.8921Z" fill="#0060A7"/>
</svg>
