<svg width="110" height="110" viewBox="0 0 110 110" fill="none" xmlns="http://www.w3.org/2000/svg">
<path d="M106.219 52.6367H100.622C99.7419 52.6367 98.8919 52.8363 98.1228 53.1981L95.7062 32.6227C95.9404 32.4835 96.1606 32.3174 96.3583 32.1196C96.9811 31.4965 97.3242 30.6685 97.3242 29.7879C97.3242 26.5124 94.6593 23.8474 91.3838 23.8474H89.3868C88.4969 23.8474 87.7755 24.5689 87.7755 25.4588C87.7755 26.3487 88.4969 27.0701 89.3868 27.0701H91.3838C92.8823 27.0701 94.1016 28.2893 94.1016 29.7879C94.1016 29.7971 94.1016 29.8188 94.0797 29.8407C94.0573 29.8633 94.0356 29.8633 94.0264 29.8633H37.6454C37.6157 29.5292 37.5977 29.1932 37.5977 28.8544V27.0703H82.5118C83.4017 27.0703 84.1231 26.3489 84.1231 25.459C84.1231 24.5691 83.4017 23.8477 82.5118 23.8477H37.5977V9.21357C37.5977 4.13316 33.4645 0 28.3841 0H9.21357C4.13316 0 0 4.13316 0 9.21357V28.3841C0 33.4645 4.13316 37.5977 9.21357 37.5977H19.5097L18.9733 42.1663C18.8695 43.0502 19.5018 43.8507 20.3857 43.9545C20.4495 43.962 20.5129 43.9656 20.5756 43.9656C21.3815 43.9656 22.0776 43.3621 22.1738 42.5421L22.7545 37.5977H27.6876C29.5704 37.5977 31.4396 38.0737 33.0932 38.9746L36.9273 41.0633C37.3201 41.2773 37.7422 41.3821 38.1601 41.3821C38.7821 41.3821 39.394 41.1497 39.8836 40.6989C40.7024 39.945 40.9404 38.8004 40.4903 37.7824L38.5632 33.4252C38.5135 33.313 38.4693 33.1994 38.4235 33.0862H92.5158L95.3726 57.4108C95.0351 57.3815 94.6943 57.3635 94.3493 57.3635H87.2382C85.6567 52.8135 81.2823 49.6291 76.3767 49.6291C71.4712 49.6291 67.0968 52.8135 65.5153 57.3635H21.4513C21.1063 57.3635 20.7655 57.3815 20.428 57.4108L21.3591 49.4809C21.4629 48.597 20.8306 47.7965 19.9467 47.6927C19.0622 47.5888 18.2624 48.2212 18.1586 49.1051L17.678 53.1983C16.9086 52.8363 16.0587 52.6367 15.1787 52.6367H9.58203C7.49697 52.6367 5.80078 54.3331 5.80078 56.418V60.2422C5.80078 62.3272 7.49719 64.0234 9.58203 64.0234H10.8414C10.0901 65.5735 9.66797 67.3116 9.66797 69.1466V84.8055C9.66797 86.2931 10.2261 87.652 11.1429 88.6862C10.2379 89.5301 9.66797 90.7285 9.66797 92.0605V94.6387C9.66797 97.1856 11.7401 99.2578 14.2871 99.2578H15.2539V105.811C15.2539 108.121 17.1334 110 19.4434 110H27.6074C29.9174 110 31.7969 108.121 31.7969 105.811V99.2578H72.9788C73.8687 99.2578 74.5901 98.5364 74.5901 97.6465C74.5901 96.7566 73.8687 96.0352 72.9788 96.0352H14.2871C13.5171 96.0352 12.8906 95.4087 12.8906 94.6387V92.0605C12.8906 91.2906 13.5171 90.6641 14.2871 90.6641H101.514C102.284 90.6641 102.91 91.2906 102.91 92.0605V94.6387C102.91 95.4087 102.284 96.0352 101.514 96.0352H80.0037C79.1139 96.0352 78.3924 96.7566 78.3924 97.6465C78.3924 98.5364 79.1139 99.2578 80.0037 99.2578H82.7148V105.811C82.7148 108.121 84.5943 110 86.9043 110H95.0684C97.3784 110 99.2578 108.121 99.2578 105.811V99.2578H101.514C104.061 99.2578 106.133 97.1856 106.133 94.6387V92.0605C106.133 90.7285 105.563 89.5301 104.658 88.6862C105.575 87.652 106.133 86.2928 106.133 84.8055V69.1466C106.133 67.3116 105.711 65.5733 104.959 64.0234H106.219C108.304 64.0234 110 62.327 110 60.2422V56.418C110 54.3331 108.304 52.6367 106.219 52.6367ZM34.6347 36.1447C32.5097 34.9869 30.1073 34.375 27.6876 34.375H9.21357C5.91014 34.375 3.22266 31.6875 3.22266 28.3841V9.21357C3.22266 5.91014 5.91014 3.22266 9.21357 3.22266H28.3841C31.6875 3.22266 34.375 5.91014 34.375 9.21357V28.8544C34.375 30.89 34.7924 32.8664 35.6159 34.7282L36.7527 37.2982L34.6347 36.1447ZM28.5742 105.811C28.5742 106.344 28.1404 106.777 27.6074 106.777H19.4434C18.9103 106.777 18.4766 106.344 18.4766 105.811V99.2578H28.5742V105.811ZM96.0352 105.811C96.0352 106.344 95.6014 106.777 95.0684 106.777H86.9043C86.3713 106.777 85.9375 106.344 85.9375 105.811V99.2578H96.0352V105.811ZM90.3341 60.5866L88.504 63.0169C88.1304 63.5132 87.5366 63.8092 86.9153 63.8092H28.8853C28.264 63.8092 27.6702 63.513 27.2965 63.0167L25.4667 60.5866H90.3341ZM76.377 52.8516C79.5158 52.8516 82.353 54.6618 83.7435 57.3633H69.0102C70.4009 54.6618 73.2381 52.8516 76.377 52.8516ZM9.02344 60.2422V56.418C9.02344 56.1099 9.27416 55.8594 9.58203 55.8594H15.1787C15.9923 55.8594 16.7503 56.2328 17.2485 56.8552L17.0902 58.2035C15.6013 58.7991 14.26 59.6875 13.1418 60.8008H9.58203C9.27416 60.8008 9.02344 60.5501 9.02344 60.2422ZM15.5265 87.4414C14.0731 87.4414 12.8906 86.2589 12.8906 84.8055V69.1466C12.8906 64.4325 16.7209 60.5967 21.4324 60.5864L24.7221 64.9552C25.7011 66.2554 27.2574 67.0319 28.8853 67.0319H86.9155C88.5433 67.0319 90.0997 66.2554 91.0785 64.9552L94.3682 60.5862C99.0799 60.5967 102.91 64.4325 102.91 69.1466V84.8055C102.91 86.2589 101.728 87.4414 100.274 87.4414H15.5265ZM106.777 60.2422C106.777 60.5503 106.527 60.8008 106.219 60.8008H102.659C101.541 59.6872 100.2 58.7989 98.7108 58.2033L98.5525 56.8552C99.0507 56.2326 99.8087 55.8594 100.622 55.8594H106.219C106.527 55.8594 106.778 56.1101 106.778 56.418V60.2422H106.777Z" fill="#0060A7"/>
<path d="M25.9273 68.5352H22.509C18.9823 68.5352 16.1133 71.4042 16.1133 74.9308V77.7981C16.1133 80.8646 18.608 83.3594 21.6745 83.3594H29.7174C32.7594 83.3594 35.2344 80.8844 35.2344 77.8422C35.2344 72.7104 31.0591 68.5352 25.9273 68.5352ZM29.7174 80.1367H21.6745C20.385 80.1367 19.3359 79.0876 19.3359 77.7981V74.9308C19.3359 73.1812 20.7593 71.7578 22.509 71.7578H25.9273C29.2823 71.7578 32.0117 74.4874 32.0117 77.8424C32.0117 79.1074 30.9824 80.1367 29.7174 80.1367Z" fill="#0060A7"/>
<path d="M93.2918 68.5352H89.8734C84.7415 68.5352 80.5664 72.7104 80.5664 77.8424C80.5664 80.8844 83.0414 83.3594 86.0834 83.3594H94.1263C97.1927 83.3594 99.6875 80.8646 99.6875 77.7981V74.9308C99.6875 71.4042 96.8185 68.5352 93.2918 68.5352ZM96.4648 77.7981C96.4648 79.0876 95.4158 80.1367 94.1263 80.1367H86.0834C84.8182 80.1367 83.7891 79.1074 83.7891 77.8422C83.7891 74.4872 86.5187 71.7578 89.8734 71.7578H93.2918C95.0415 71.7578 96.4648 73.1812 96.4648 74.9308V77.7981Z" fill="#0060A7"/>
<path d="M66.6016 68.75H49.1992C44.5199 68.75 40.7129 72.557 40.7129 77.2363C40.7129 81.9156 44.5199 85.7227 49.1992 85.7227H66.6016C71.2809 85.7227 75.0879 81.9156 75.0879 77.2363C75.0879 72.557 71.2809 68.75 66.6016 68.75ZM66.6016 82.5H49.1992C46.2969 82.5 43.9355 80.1387 43.9355 77.2363C43.9355 74.334 46.2969 71.9727 49.1992 71.9727H66.6016C69.5039 71.9727 71.8652 74.334 71.8652 77.2363C71.8652 80.1387 69.5039 82.5 66.6016 82.5Z" fill="#0060A7"/>
<path d="M18.3691 13.9116C15.5852 13.9116 13.3203 16.1765 13.3203 18.9604C13.3203 21.7444 15.5852 24.0093 18.3691 24.0093C21.1531 24.0093 23.418 21.7444 23.418 18.9604C23.418 16.1765 21.1531 13.9116 18.3691 13.9116ZM18.3691 20.7866C17.3622 20.7866 16.543 19.9674 16.543 18.9604C16.543 17.9535 17.3622 17.1343 18.3691 17.1343C19.3761 17.1343 20.1953 17.9535 20.1953 18.9604C20.1953 19.9674 19.3761 20.7866 18.3691 20.7866Z" fill="#0060A7"/>
<path d="M29.2417 14.4569C29.6697 12.7106 29.1915 10.7929 27.8639 9.46564C26.5364 8.13812 24.6185 7.6601 22.8727 8.08785C21.9405 6.55064 20.2462 5.53271 18.3691 5.53271C16.4921 5.53271 14.7978 6.55064 13.8656 8.08785C12.12 7.6601 10.2019 8.13834 8.87434 9.46564C7.54703 10.7929 7.069 12.7106 7.49654 14.4569C5.95934 15.3891 4.94141 17.0834 4.94141 18.9605C4.94141 20.8375 5.95934 22.5318 7.49654 23.464C7.06879 25.21 7.54703 27.128 8.87434 28.4553C10.2019 29.7826 12.1193 30.2606 13.8656 29.8328C14.7978 31.3698 16.4923 32.388 18.3691 32.388C20.246 32.388 21.9405 31.3698 22.8727 29.8328C24.6192 30.2606 26.5369 29.7823 27.8639 28.455C29.1912 27.1277 29.6695 25.21 29.2417 23.4638C30.7789 22.5318 31.7969 20.8375 31.7969 18.9605C31.7969 17.0836 30.7787 15.3891 29.2417 14.4569ZM26.8389 20.9742C26.2799 21.058 25.8055 21.4288 25.5892 21.9511C25.3728 22.4734 25.4461 23.0708 25.7821 23.5255C26.3768 24.3298 26.2921 25.4696 25.5851 26.1764C24.8783 26.8832 23.7385 26.9679 22.9341 26.3734C22.4795 26.0376 21.8823 25.9641 21.3598 26.1805C20.8375 26.3968 20.4667 26.871 20.3829 27.43C20.2344 28.4194 19.3686 29.1653 18.3689 29.1653C17.3693 29.1653 16.5034 28.4194 16.355 27.43C16.2712 26.871 15.9004 26.3966 15.3781 26.1803C15.1796 26.098 14.9701 26.0576 14.7617 26.0576C14.422 26.0576 14.0854 26.165 13.8037 26.3732C12.9991 26.9677 11.8596 26.8832 11.1528 26.1762C10.4457 25.4691 10.3611 24.3296 10.9557 23.5252C11.2918 23.0706 11.365 22.4731 11.1487 21.9509C10.9323 21.4286 10.4579 21.0578 9.89893 20.974C8.91 20.8259 8.16406 19.9601 8.16406 18.9605C8.16406 17.9608 8.91 17.095 9.89936 16.9465C10.4584 16.8627 10.9328 16.4919 11.1489 15.9696C11.365 15.4473 11.292 14.8498 10.956 14.3952C10.3613 13.5909 10.4459 12.4511 11.153 11.7443C11.8602 11.0374 12.9998 10.9528 13.8039 11.5473C14.2585 11.8833 14.856 11.9565 15.3783 11.7402C15.9006 11.5238 16.2714 11.0495 16.3552 10.4904C16.5034 9.50131 17.3693 8.75516 18.3691 8.75516C19.3688 8.75516 20.2346 9.50109 20.3831 10.4904C20.4669 11.0495 20.8377 11.5238 21.36 11.74C21.8825 11.9563 22.48 11.8831 22.9344 11.5471C23.7387 10.9524 24.8783 11.037 25.5853 11.7441C26.2924 12.4509 26.377 13.5904 25.7823 14.3948C25.4463 14.8494 25.373 15.4469 25.5894 15.9692C25.8057 16.4915 26.2799 16.8623 26.8389 16.9461C27.8283 17.0945 28.5742 17.9604 28.5742 18.96C28.5742 19.9601 27.8283 20.8259 26.8389 20.9742Z" fill="#0060A7"/>
</svg>
