<svg width="18" height="14" viewBox="0 0 18 14" fill="none" xmlns="http://www.w3.org/2000/svg">
<path d="M2 0.5C1.46957 0.5 0.960859 0.710714 0.585786 1.08579C0.210714 1.46086 0 1.96957 0 2.5L0 11.5C0 12.0304 0.210714 12.5391 0.585786 12.9142C0.960859 13.2893 1.46957 13.5 2 13.5H5V0.5H2ZM16 0.5H13V13.5H16C16.5304 13.5 17.0391 13.2893 17.4142 12.9142C17.7893 12.5391 18 12.0304 18 11.5V2.5C18 1.96957 17.7893 1.46086 17.4142 1.08579C17.0391 0.710714 16.5304 0.5 16 0.5Z" fill="#D52B1E"/>
<path d="M5 0.5H13V13.5H5V0.5Z" fill="white"/>
<path d="M9.30744 9.05653C9.90644 9.12603 10.4434 9.18853 11.0419 9.25703L10.8894 8.75603C10.8782 8.71292 10.8798 8.66748 10.8939 8.62523C10.908 8.58298 10.9341 8.54574 10.9689 8.51803L12.7084 7.10103L12.3484 6.93153C12.1899 6.87503 12.2334 6.78553 12.2909 6.57053L12.5564 5.60253L11.5459 5.81603C11.4474 5.83103 11.3819 5.76853 11.3669 5.70853L11.2364 5.25303L10.4374 6.15003C10.3239 6.29403 10.0939 6.29403 10.1654 5.96203L10.5069 4.14503L10.0484 4.38253C9.91994 4.45453 9.79144 4.46653 9.71994 4.33803L9.08744 3.15503V3.18453V3.15503L8.45494 4.33803C8.38294 4.46653 8.25444 4.45453 8.12594 4.38253L7.66794 4.14503L8.00944 5.96203C8.08144 6.29403 7.85094 6.29403 7.73744 6.15003L6.93844 5.25353L6.80844 5.70903C6.79344 5.76903 6.72744 5.83153 6.62894 5.81653L5.61844 5.60303L5.88394 6.57103C5.94044 6.78603 5.98444 6.87553 5.82594 6.93203L5.46594 7.10153L7.20544 8.51853C7.27444 8.57203 7.30944 8.66853 7.28444 8.75653L7.13194 9.25753L8.86694 9.05703C8.91994 9.05703 8.95494 9.08653 8.95444 9.14753L8.84744 10.9995H9.32544L9.21894 9.14753C9.21994 9.08603 9.25444 9.05653 9.30744 9.05653Z" fill="#D52B1E"/>
</svg>
