<svg width="39" height="34" viewBox="0 0 39 34" fill="none" xmlns="http://www.w3.org/2000/svg">
<path fill-rule="evenodd" clip-rule="evenodd" d="M22.2265 10.2442L16.291 9.3719L17.4205 13.2976L23.1678 13.4586L22.9087 11.9594C22.6197 11.4214 22.3895 10.8466 22.2265 10.2442ZM29.063 28.1591C30.6644 28.1591 31.9629 29.4672 31.9629 31.0795C31.9629 32.6925 30.6644 34 29.063 34C27.4618 34 26.1632 32.6925 26.1632 31.0795C26.1632 29.4672 27.4618 28.1591 29.063 28.1591ZM29.4976 30.6422C29.1121 30.2538 28.4485 30.529 28.4485 31.0795C28.4485 31.6301 29.1121 31.9053 29.4976 31.5175C29.7376 31.2758 29.7376 30.8835 29.4976 30.6422ZM15.5302 28.1591C17.1315 28.1591 18.4301 29.4672 18.4301 31.0795C18.4301 32.6925 17.1313 34 15.5302 34C13.9288 34 12.6302 32.6925 12.6302 31.0795C12.6302 29.4672 13.9288 28.1591 15.5302 28.1591ZM15.9647 30.6422C15.5791 30.2538 14.9158 30.529 14.9158 31.0795C14.9158 31.6301 15.5793 31.9053 15.9647 31.5175C16.2045 31.2758 16.2045 30.8835 15.9647 30.6422ZM25.7498 14.9967L26.4913 19.2895C28.2872 18.8058 29.8171 17.6851 30.8215 16.1711C29.0045 16.3583 27.2334 15.9254 25.7498 14.9967ZM33.8099 15.246C32.5878 18.7441 29.5152 21.2719 25.7897 21.7628L13.6554 23.3615C13.041 23.5074 12.7257 24.2273 13.0775 24.7924C13.2697 25.1007 13.5624 25.2578 13.9276 25.2578H31.8343C32.4653 25.2578 32.9769 25.7731 32.9769 26.4087C32.9769 27.0443 32.4653 27.5596 31.8343 27.5596H13.9276C11.5451 27.5596 9.93917 25.0839 10.9628 22.9011C11.0977 22.614 11.2654 22.3559 11.462 22.1288L5.56516 7.50918L4.13501 6.46644C2.85915 7.15457 1.28128 6.75243 0.476992 5.5457C-0.388706 4.24727 -0.0428547 2.4887 1.24553 1.61765C2.53484 0.74598 4.28074 1.09428 5.14568 2.39163C5.57234 3.03192 5.73824 3.85836 5.54133 4.65464L6.94246 5.67615L21.9462 7.88102C22.0649 3.50867 25.6226 0 29.993 0C32.2166 0 34.2303 0.908283 35.6871 2.37655L37.0492 1.00428C37.4958 0.554908 38.2192 0.554908 38.6655 1.00428C39.1115 1.4535 39.1115 2.18225 38.6655 2.63147L37.0693 4.23881C39.1969 8.17732 37.729 13.1161 33.8099 15.246ZM26.6323 8.51977C26.1861 8.07024 26.1861 7.3418 26.6323 6.89212C27.0782 6.44275 27.802 6.44275 28.2479 6.89212L29.7256 8.38008L34.0712 4.00358C31.8722 1.71395 28.1271 1.77549 25.9166 4.00174C23.6658 6.26845 23.6658 9.94465 25.9166 12.2118C28.168 14.4787 31.8182 14.4787 34.0692 12.2118C35.7457 10.5239 36.173 8.0547 35.3531 5.96707L30.5335 10.8209C30.0875 11.2705 29.3638 11.2705 28.9179 10.8209L26.6323 8.51977ZM3.25343 3.66852C3.0003 3.28868 2.38483 3.38314 2.29103 3.86389C2.19601 4.35188 2.73144 4.66926 3.10952 4.41388C3.34982 4.25142 3.41383 3.90943 3.25343 3.66852ZM13.497 21.0654C14.7023 20.9407 15.9416 20.7471 17.1469 20.5879L15.696 15.5436L11.219 15.4182L13.497 21.0654ZM18.0858 15.6103L19.4316 20.2873L24.2378 19.6539L23.5658 15.7637L18.0858 15.6103ZM10.2829 13.0975L15.0302 13.2304L13.8155 9.00806L8.30692 8.19824L10.2829 13.0975Z" fill="#0060A7"/>
</svg>
