<svg width="24" height="29" viewBox="0 0 24 29" fill="none" xmlns="http://www.w3.org/2000/svg">
<path d="M16.6695 17.7004C16.092 16.4373 14.9384 15.5448 13.5695 15.3054C17.1952 12.2176 17.5696 6.18852 14.4589 2.53385C11.583 -0.844901 6.86492 -0.844333 3.98962 2.53385C0.886444 6.17977 1.2633 12.1464 4.80561 15.2426H4.19883C1.88359 15.2426 0 17.1262 0 19.4414V29H17.5968C20.7331 29 23.2847 26.4485 23.2847 23.3122C23.2847 19.8264 20.1508 17.1271 16.6695 17.7004ZM9.22421 1.70548C11.092 1.70548 12.7501 2.80324 13.7758 4.48955C12.017 7.49945 7.41936 8.69814 3.63003 7.6688C3.96249 4.31486 6.34431 1.70548 9.22421 1.70548ZM3.64621 9.42806C7.59649 10.3309 12.1372 9.2255 14.5648 6.31631C15.7858 10.6663 13.0901 15.2426 9.22421 15.2426C6.38706 15.2426 4.03339 12.7101 3.64621 9.42806ZM1.70311 27.2968V19.4414C1.70311 18.0653 2.82267 16.9457 4.19877 16.9457H12.849C13.7675 16.9457 14.6009 17.4606 15.0329 18.2361C11.5963 19.979 10.8416 24.5492 13.5424 27.2968H1.70311ZM17.5968 27.2968C15.3997 27.2968 13.6122 25.5093 13.6122 23.3122C13.6122 21.1151 15.3997 19.3276 17.5968 19.3276C19.794 19.3276 21.5815 21.1151 21.5815 23.3122C21.5815 25.5093 19.794 27.2968 17.5968 27.2968Z" fill="#0060A7"/>
<path d="M18.4483 21.3779H16.7451V22.4608H15.6622V24.164H16.7451V25.2469H18.4483V24.164H19.5312V22.4608H18.4483V21.3779Z" fill="#0060A7"/>
</svg>
