<svg width="70" height="70" viewBox="0 0 70 70" fill="none" xmlns="http://www.w3.org/2000/svg">
<circle cx="35" cy="35" r="35" fill="#709A6B"/>
<path d="M26.3548 46.6774C25.9912 46.6774 25.6357 46.7853 25.3333 46.9873C25.0309 47.1893 24.7952 47.4765 24.6561 47.8125C24.5169 48.1485 24.4805 48.5182 24.5514 48.8749C24.6224 49.2315 24.7975 49.5592 25.0547 49.8163C25.3118 50.0735 25.6394 50.2486 25.9961 50.3195C26.3528 50.3905 26.7225 50.3541 27.0585 50.2149C27.3944 50.0757 27.6816 49.84 27.8837 49.5377C28.0857 49.2353 28.1935 48.8798 28.1935 48.5161C28.193 48.0287 27.9991 47.5613 27.6544 47.2166C27.3097 46.8719 26.8423 46.678 26.3548 46.6774ZM26.3548 49.129C26.2336 49.129 26.1151 49.0931 26.0143 49.0258C25.9135 48.9584 25.835 48.8627 25.7886 48.7507C25.7422 48.6387 25.73 48.5155 25.7537 48.3966C25.7773 48.2777 25.8357 48.1685 25.9214 48.0828C26.0072 47.997 26.1164 47.9387 26.2353 47.915C26.3541 47.8914 26.4774 47.9035 26.5894 47.9499C26.7014 47.9963 26.7971 48.0748 26.8644 48.1756C26.9318 48.2764 26.9677 48.3949 26.9677 48.5161C26.9675 48.6786 26.9029 48.8344 26.788 48.9493C26.6731 49.0642 26.5173 49.1289 26.3548 49.129Z" fill="white"/>
<path d="M49.6451 46.6774C49.2814 46.6774 48.9259 46.7853 48.6236 46.9873C48.3212 47.1893 48.0855 47.4765 47.9464 47.8125C47.8072 48.1485 47.7708 48.5182 47.8417 48.8749C47.9127 49.2315 48.0878 49.5592 48.3449 49.8163C48.6021 50.0735 48.9297 50.2486 49.2864 50.3195C49.6431 50.3905 50.0128 50.3541 50.3487 50.2149C50.6847 50.0757 50.9719 49.84 51.1739 49.5377C51.376 49.2353 51.4838 48.8798 51.4838 48.5161C51.4833 48.0287 51.2894 47.5613 50.9447 47.2166C50.6 46.8719 50.1326 46.678 49.6451 46.6774ZM49.6451 49.129C49.5239 49.129 49.4054 49.0931 49.3046 49.0258C49.2038 48.9584 49.1252 48.8627 49.0789 48.7507C49.0325 48.6387 49.0203 48.5155 49.044 48.3966C49.0676 48.2777 49.126 48.1685 49.2117 48.0828C49.2974 47.997 49.4066 47.9387 49.5255 47.915C49.6444 47.8914 49.7677 47.9035 49.8797 47.9499C49.9916 47.9963 50.0874 48.0748 50.1547 48.1756C50.2221 48.2764 50.258 48.3949 50.258 48.5161C50.2578 48.6786 50.1932 48.8344 50.0783 48.9493C49.9634 49.0642 49.8076 49.1289 49.6451 49.129Z" fill="white"/>
<path d="M56.9027 38.3779L51.3866 29.7973C51.331 29.711 51.2547 29.6401 51.1646 29.5909C51.0746 29.5418 50.9736 29.5161 50.871 29.5161H43.5161V26.1452C43.5155 25.5764 43.2893 25.0312 42.8871 24.629C42.485 24.2268 41.9397 24.0006 41.371 24H21.1452C20.5764 24.0006 20.0312 24.2268 19.629 24.629C19.2268 25.0312 19.0006 25.5764 19 26.1452V48.5161C19 48.6787 19.0646 48.8346 19.1795 48.9495C19.2945 49.0645 19.4504 49.129 19.6129 49.129H22.109C22.2563 50.1501 22.7666 51.0838 23.5464 51.7591C24.3262 52.4345 25.3232 52.8062 26.3548 52.8062C27.3864 52.8062 28.3835 52.4345 29.1633 51.7591C29.9431 51.0838 30.4534 50.1501 30.6007 49.129H45.3993C45.5466 50.1501 46.0569 51.0838 46.8367 51.7591C47.6165 52.4345 48.6136 52.8062 49.6452 52.8062C50.6768 52.8062 51.6738 52.4345 52.4536 51.7591C53.2334 51.0838 53.7437 50.1501 53.891 49.129H56.3871C56.5496 49.129 56.7055 49.0645 56.8205 48.9495C56.9354 48.8346 57 48.6787 57 48.5161V38.7097C57 38.5921 56.9662 38.4769 56.9027 38.3779ZM26.3548 51.5806C25.7487 51.5806 25.1562 51.4009 24.6523 51.0642C24.1483 50.7274 23.7555 50.2488 23.5236 49.6889C23.2916 49.1289 23.231 48.5127 23.3492 47.9183C23.4675 47.3238 23.7593 46.7778 24.1879 46.3492C24.6165 45.9206 25.1625 45.6287 25.757 45.5105C26.3514 45.3923 26.9676 45.4529 27.5276 45.6849C28.0875 45.9168 28.5662 46.3096 28.9029 46.8136C29.2396 47.3175 29.4194 47.91 29.4194 48.5161C29.4185 49.3286 29.0954 50.1076 28.5209 50.6822C27.9464 51.2567 27.1673 51.5798 26.3548 51.5806ZM42.2903 47.9032H30.6007C30.4534 46.8822 29.9431 45.9485 29.1633 45.2731C28.3835 44.5978 27.3864 44.226 26.3548 44.226C25.3232 44.226 24.3262 44.5978 23.5464 45.2731C22.7666 45.9485 22.2563 46.8822 22.109 47.9032H20.2258V41.7742H42.2903V47.9032ZM42.2903 40.5484H20.2258V26.1452C20.226 25.9014 20.3229 25.6677 20.4953 25.4953C20.6677 25.3229 20.9014 25.226 21.1452 25.2258H41.371C41.6147 25.226 41.8485 25.3229 42.0208 25.4953C42.1932 25.6677 42.2901 25.9014 42.2903 26.1452V40.5484ZM51.7183 32.5806L55.2647 38.0968H46.5806V32.5806H51.7183ZM49.6452 51.5806C49.0391 51.5806 48.4466 51.4009 47.9426 51.0642C47.4387 50.7274 47.0459 50.2488 46.8139 49.6889C46.582 49.1289 46.5213 48.5127 46.6395 47.9183C46.7578 47.3238 47.0496 46.7778 47.4782 46.3492C47.9068 45.9206 48.4528 45.6287 49.0473 45.5105C49.6418 45.3923 50.2579 45.4529 50.8179 45.6849C51.3779 45.9168 51.8565 46.3096 52.1932 46.8136C52.5299 47.3175 52.7097 47.91 52.7097 48.5161C52.7089 49.3286 52.3857 50.1076 51.8112 50.6822C51.2367 51.2567 50.4577 51.5798 49.6452 51.5806ZM55.7742 43H54.5484C54.3858 43 54.2299 42.9354 54.115 42.8205C54.0001 42.7055 53.9355 42.5496 53.9355 42.3871C53.9355 42.2245 54.0001 42.0687 54.115 41.9537C54.2299 41.8388 54.3858 41.7742 54.5484 41.7742H55.7742V43ZM55.7742 40.5484H54.5484C54.0607 40.5484 53.593 40.7421 53.2482 41.0869C52.9034 41.4318 52.7097 41.8994 52.7097 42.3871C52.7097 42.8748 52.9034 43.3424 53.2482 43.6873C53.593 44.0321 54.0607 44.2258 54.5484 44.2258H55.7742V47.9032H53.891C53.7437 46.8822 53.2334 45.9485 52.4536 45.2731C51.6738 44.5978 50.6768 44.226 49.6452 44.226C48.6136 44.226 47.6165 44.5978 46.8367 45.2731C46.0569 45.9485 45.5466 46.8822 45.3993 47.9032H43.5161V30.7419H50.5362L50.9307 31.3548H45.9677C45.8052 31.3548 45.6493 31.4194 45.5344 31.5344C45.4194 31.6493 45.3548 31.8052 45.3548 31.9677V38.7097C45.3548 38.8722 45.4194 39.0281 45.5344 39.1431C45.6493 39.258 45.8052 39.3226 45.9677 39.3226H55.7742V40.5484Z" fill="white"/>
<path d="M47.8065 40.5483H45.9678C45.8052 40.5483 45.6493 40.6129 45.5344 40.7279C45.4194 40.8428 45.3549 40.9987 45.3549 41.1612C45.3549 41.3238 45.4194 41.4797 45.5344 41.5946C45.6493 41.7096 45.8052 41.7741 45.9678 41.7741H47.8065C47.969 41.7741 48.1249 41.7096 48.2399 41.5946C48.3548 41.4797 48.4194 41.3238 48.4194 41.1612C48.4194 40.9987 48.3548 40.8428 48.2399 40.7279C48.1249 40.6129 47.969 40.5483 47.8065 40.5483Z" fill="white"/>
<path d="M34.9355 44.2258H39.8388C40.0013 44.2258 40.1572 44.1612 40.2721 44.0463C40.3871 43.9314 40.4517 43.7755 40.4517 43.6129C40.4517 43.4504 40.3871 43.2945 40.2721 43.1795C40.1572 43.0646 40.0013 43 39.8388 43H34.9355C34.773 43 34.6171 43.0646 34.5021 43.1795C34.3872 43.2945 34.3226 43.4504 34.3226 43.6129C34.3226 43.7755 34.3872 43.9314 34.5021 44.0463C34.6171 44.1612 34.773 44.2258 34.9355 44.2258Z" fill="white"/>
<path d="M39.8387 44.8387H38C37.8374 44.8387 37.6815 44.9033 37.5666 45.0183C37.4517 45.1332 37.3871 45.2891 37.3871 45.4516C37.3871 45.6142 37.4517 45.7701 37.5666 45.885C37.6815 46 37.8374 46.0646 38 46.0646H39.8387C40.0013 46.0646 40.1571 46 40.2721 45.885C40.387 45.7701 40.4516 45.6142 40.4516 45.4516C40.4516 45.2891 40.387 45.1332 40.2721 45.0183C40.1571 44.9033 40.0013 44.8387 39.8387 44.8387Z" fill="white"/>
<circle cx="20" cy="22" r="6.5" fill="#709A6B" stroke="white"/>
<path d="M16.6846 24.6864L20.3457 22.362L19.6319 19.0526" stroke="white"/>
</svg>
