<svg width="367" height="307" viewBox="0 0 367 307" fill="none" xmlns="http://www.w3.org/2000/svg">
<path d="M0 0H183.5C284.844 0 367 82.1557 367 183.5V307H0V0Z" fill="#0060A7"/>
<path d="M0 177H265C289.853 177 310 197.147 310 222C310 246.853 289.853 267 265 267H0V177Z" fill="#E83C54"/>
<path d="M26.72 213.768C26.6133 213.949 26.5013 214.083 26.384 214.168C26.2667 214.253 26.1173 214.296 25.936 214.296C25.744 214.296 25.5253 214.211 25.28 214.04C25.0347 213.859 24.7253 213.661 24.352 213.448C23.9893 213.224 23.552 213.027 23.04 212.856C22.528 212.675 21.9147 212.584 21.2 212.584C20.528 212.584 19.936 212.675 19.424 212.856C18.9227 213.027 18.5013 213.267 18.16 213.576C17.8187 213.875 17.5573 214.232 17.376 214.648C17.2053 215.053 17.12 215.496 17.12 215.976C17.12 216.595 17.2747 217.107 17.584 217.512C17.904 217.917 18.32 218.264 18.832 218.552C19.344 218.84 19.9253 219.091 20.576 219.304C21.2267 219.517 21.8933 219.741 22.576 219.976C23.2587 220.2 23.9253 220.461 24.576 220.76C25.2267 221.059 25.808 221.437 26.32 221.896C26.832 222.344 27.2427 222.899 27.552 223.56C27.872 224.211 28.032 225.011 28.032 225.96C28.032 226.973 27.856 227.923 27.504 228.808C27.1627 229.693 26.6613 230.467 26 231.128C25.3387 231.789 24.5227 232.312 23.552 232.696C22.592 233.069 21.4987 233.256 20.272 233.256C19.536 233.256 18.8213 233.181 18.128 233.032C17.4347 232.893 16.7787 232.696 16.16 232.44C15.5413 232.173 14.96 231.859 14.416 231.496C13.8827 231.123 13.4027 230.707 12.976 230.248L13.952 228.616C14.048 228.488 14.16 228.381 14.288 228.296C14.4267 228.211 14.5813 228.168 14.752 228.168C14.976 228.168 15.232 228.285 15.52 228.52C15.8187 228.755 16.1813 229.016 16.608 229.304C17.0453 229.581 17.5627 229.837 18.16 230.072C18.768 230.307 19.504 230.424 20.368 230.424C21.072 230.424 21.7013 230.333 22.256 230.152C22.8107 229.96 23.2747 229.693 23.648 229.352C24.032 229 24.3253 228.579 24.528 228.088C24.7307 227.597 24.832 227.053 24.832 226.456C24.832 225.784 24.6773 225.235 24.368 224.808C24.0587 224.381 23.648 224.024 23.136 223.736C22.624 223.448 22.0427 223.203 21.392 223C20.7413 222.797 20.0747 222.589 19.392 222.376C18.7093 222.152 18.0427 221.896 17.392 221.608C16.7413 221.32 16.16 220.947 15.648 220.488C15.136 220.019 14.7253 219.437 14.416 218.744C14.1067 218.04 13.952 217.176 13.952 216.152C13.952 215.331 14.112 214.536 14.432 213.768C14.752 213 15.216 212.323 15.824 211.736C16.4427 211.139 17.2 210.664 18.096 210.312C18.992 209.949 20.016 209.768 21.168 209.768C22.4587 209.768 23.6427 209.976 24.72 210.392C25.808 210.797 26.752 211.384 27.552 212.152L26.72 213.768ZM40.1155 225.784C38.8462 225.827 37.7688 225.928 36.8835 226.088C35.9982 226.237 35.2782 226.44 34.7235 226.696C34.1688 226.952 33.7688 227.256 33.5235 227.608C33.2782 227.949 33.1555 228.333 33.1555 228.76C33.1555 229.165 33.2195 229.517 33.3475 229.816C33.4862 230.104 33.6675 230.344 33.8915 230.536C34.1262 230.717 34.3982 230.851 34.7075 230.936C35.0168 231.021 35.3528 231.064 35.7155 231.064C36.1955 231.064 36.6328 231.016 37.0275 230.92C37.4328 230.824 37.8115 230.691 38.1635 230.52C38.5155 230.339 38.8515 230.12 39.1715 229.864C39.4915 229.608 39.8062 229.315 40.1155 228.984V225.784ZM30.9635 219.016C31.8702 218.152 32.8515 217.507 33.9075 217.08C34.9742 216.653 36.1422 216.44 37.4115 216.44C38.3395 216.44 39.1608 216.595 39.8755 216.904C40.5902 217.203 41.1928 217.624 41.6835 218.168C42.1742 218.712 42.5422 219.363 42.7875 220.12C43.0435 220.877 43.1715 221.715 43.1715 222.632V233H41.7795C41.4702 233 41.2355 232.952 41.0755 232.856C40.9155 232.749 40.7875 232.557 40.6915 232.28L40.3555 230.856C39.9395 231.24 39.5288 231.581 39.1235 231.88C38.7182 232.168 38.2915 232.419 37.8435 232.632C37.4062 232.835 36.9368 232.989 36.4355 233.096C35.9342 233.203 35.3795 233.256 34.7715 233.256C34.1315 233.256 33.5288 233.171 32.9635 233C32.4088 232.819 31.9235 232.547 31.5075 232.184C31.0915 231.821 30.7608 231.368 30.5155 230.824C30.2808 230.28 30.1635 229.645 30.1635 228.92C30.1635 228.28 30.3342 227.667 30.6755 227.08C31.0275 226.483 31.5928 225.949 32.3715 225.48C33.1608 225.011 34.1848 224.627 35.4435 224.328C36.7128 224.029 38.2702 223.859 40.1155 223.816V222.632C40.1155 221.405 39.8542 220.488 39.3315 219.88C38.8088 219.272 38.0408 218.968 37.0275 218.968C36.3448 218.968 35.7688 219.053 35.2995 219.224C34.8408 219.395 34.4408 219.587 34.0995 219.8C33.7688 220.003 33.4755 220.189 33.2195 220.36C32.9742 220.531 32.7182 220.616 32.4515 220.616C32.2382 220.616 32.0515 220.557 31.8915 220.44C31.7422 220.323 31.6195 220.184 31.5235 220.024L30.9635 219.016ZM61.1165 216.744L54.5245 233H51.7085L45.1165 216.744H47.6925C47.9378 216.744 48.1405 216.803 48.3005 216.92C48.4605 217.037 48.5672 217.187 48.6205 217.368L52.5085 227.352C52.6472 227.768 52.7645 228.184 52.8605 228.6C52.9672 229.005 53.0632 229.411 53.1485 229.816C53.2338 229.411 53.3298 229.005 53.4365 228.6C53.5432 228.195 53.6712 227.779 53.8205 227.352L57.7565 217.368C57.8205 217.187 57.9325 217.037 58.0925 216.92C58.2525 216.803 58.4445 216.744 58.6685 216.744H61.1165ZM73.8975 223.064C73.8975 222.445 73.8068 221.875 73.6255 221.352C73.4548 220.829 73.1988 220.376 72.8575 219.992C72.5162 219.608 72.1002 219.309 71.6095 219.096C71.1188 218.883 70.5535 218.776 69.9135 218.776C68.6015 218.776 67.5668 219.155 66.8095 219.912C66.0628 220.669 65.5882 221.72 65.3855 223.064H73.8975ZM76.4735 230.68C76.0895 231.128 75.6468 231.517 75.1455 231.848C74.6442 232.168 74.1108 232.429 73.5455 232.632C72.9802 232.835 72.3935 232.984 71.7855 233.08C71.1882 233.176 70.5962 233.224 70.0095 233.224C68.8895 233.224 67.8495 233.037 66.8895 232.664C65.9402 232.28 65.1135 231.725 64.4095 231C63.7162 230.264 63.1722 229.357 62.7775 228.28C62.3935 227.192 62.2015 225.944 62.2015 224.536C62.2015 223.405 62.3775 222.355 62.7295 221.384C63.0815 220.403 63.5828 219.549 64.2335 218.824C64.8948 218.099 65.7002 217.528 66.6495 217.112C67.5988 216.696 68.6655 216.488 69.8495 216.488C70.8415 216.488 71.7535 216.653 72.5855 216.984C73.4282 217.304 74.1535 217.773 74.7615 218.392C75.3695 219.011 75.8442 219.773 76.1855 220.68C76.5375 221.587 76.7135 222.621 76.7135 223.784C76.7135 224.264 76.6602 224.589 76.5535 224.76C76.4468 224.92 76.2495 225 75.9615 225H65.3055C65.3375 225.971 65.4762 226.819 65.7215 227.544C65.9668 228.259 66.3028 228.856 66.7295 229.336C67.1668 229.816 67.6842 230.173 68.2815 230.408C68.8788 230.643 69.5455 230.76 70.2815 230.76C70.9748 230.76 71.5722 230.68 72.0735 230.52C72.5855 230.36 73.0228 230.189 73.3855 230.008C73.7588 229.816 74.0682 229.64 74.3135 229.48C74.5695 229.32 74.7935 229.24 74.9855 229.24C75.2415 229.24 75.4388 229.336 75.5775 229.528L76.4735 230.68ZM95.0888 216.488C96.2834 216.488 97.3608 216.685 98.3208 217.08C99.2914 217.464 100.113 218.024 100.785 218.76C101.467 219.485 101.99 220.365 102.353 221.4C102.715 222.424 102.897 223.576 102.897 224.856C102.897 226.136 102.715 227.293 102.353 228.328C101.99 229.363 101.467 230.243 100.785 230.968C100.113 231.693 99.2914 232.253 98.3208 232.648C97.3608 233.032 96.2834 233.224 95.0888 233.224C93.8834 233.224 92.7954 233.032 91.8248 232.648C90.8648 232.253 90.0434 231.693 89.3608 230.968C88.6781 230.243 88.1501 229.363 87.7768 228.328C87.4141 227.293 87.2328 226.136 87.2328 224.856C87.2328 223.576 87.4141 222.424 87.7768 221.4C88.1501 220.365 88.6781 219.485 89.3608 218.76C90.0434 218.024 90.8648 217.464 91.8248 217.08C92.7954 216.685 93.8834 216.488 95.0888 216.488ZM95.0888 230.792C96.6248 230.792 97.7714 230.275 98.5288 229.24C99.2861 228.205 99.6648 226.749 99.6648 224.872C99.6648 222.995 99.2861 221.539 98.5288 220.504C97.7714 219.459 96.6248 218.936 95.0888 218.936C93.5314 218.936 92.3688 219.459 91.6008 220.504C90.8434 221.539 90.4648 222.995 90.4648 224.872C90.4648 226.749 90.8434 228.205 91.6008 229.24C92.3688 230.275 93.5314 230.792 95.0888 230.792ZM109.308 219C109.66 218.627 110.028 218.285 110.412 217.976C110.796 217.667 111.201 217.405 111.628 217.192C112.065 216.968 112.529 216.797 113.02 216.68C113.521 216.552 114.054 216.488 114.62 216.488C115.516 216.488 116.3 216.637 116.972 216.936C117.654 217.235 118.225 217.656 118.684 218.2C119.142 218.733 119.489 219.379 119.724 220.136C119.958 220.893 120.076 221.731 120.076 222.648V233H116.94V222.648C116.94 221.485 116.673 220.584 116.14 219.944C115.606 219.293 114.79 218.968 113.692 218.968C112.892 218.968 112.14 219.16 111.436 219.544C110.742 219.917 110.097 220.429 109.5 221.08V233H106.38V216.744H108.252C108.689 216.744 108.961 216.952 109.068 217.368L109.308 219ZM151.772 221.816V230.776C150.609 231.608 149.372 232.232 148.06 232.648C146.748 233.053 145.318 233.256 143.772 233.256C141.916 233.256 140.236 232.968 138.732 232.392C137.238 231.816 135.964 231.011 134.908 229.976C133.852 228.941 133.036 227.704 132.46 226.264C131.894 224.824 131.612 223.24 131.612 221.512C131.612 219.773 131.884 218.184 132.428 216.744C132.982 215.293 133.772 214.056 134.796 213.032C135.82 211.997 137.057 211.197 138.508 210.632C139.969 210.056 141.606 209.768 143.42 209.768C144.337 209.768 145.185 209.837 145.964 209.976C146.753 210.115 147.484 210.312 148.156 210.568C148.828 210.824 149.446 211.133 150.012 211.496C150.588 211.848 151.121 212.248 151.612 212.696L150.636 214.232C150.486 214.477 150.289 214.632 150.044 214.696C149.798 214.76 149.532 214.701 149.244 214.52C148.966 214.36 148.657 214.173 148.316 213.96C147.985 213.747 147.585 213.549 147.116 213.368C146.657 213.187 146.118 213.032 145.5 212.904C144.881 212.776 144.15 212.712 143.308 212.712C142.049 212.712 140.913 212.92 139.9 213.336C138.886 213.741 138.022 214.328 137.308 215.096C136.593 215.864 136.044 216.792 135.66 217.88C135.276 218.957 135.084 220.168 135.084 221.512C135.084 222.92 135.286 224.184 135.692 225.304C136.097 226.413 136.668 227.357 137.404 228.136C138.15 228.904 139.052 229.491 140.108 229.896C141.174 230.301 142.364 230.504 143.676 230.504C144.188 230.504 144.662 230.477 145.1 230.424C145.548 230.36 145.974 230.275 146.38 230.168C146.785 230.061 147.174 229.928 147.548 229.768C147.932 229.608 148.31 229.432 148.684 229.24V224.424H145.292C145.078 224.424 144.902 224.36 144.764 224.232C144.636 224.104 144.572 223.944 144.572 223.752V221.816H151.772ZM158.417 219.864C158.94 218.797 159.569 217.96 160.305 217.352C161.041 216.744 161.927 216.44 162.961 216.44C163.313 216.44 163.644 216.483 163.953 216.568C164.273 216.643 164.551 216.76 164.785 216.92L164.577 219.272C164.503 219.56 164.327 219.704 164.049 219.704C163.9 219.704 163.676 219.677 163.377 219.624C163.079 219.56 162.759 219.528 162.417 219.528C161.916 219.528 161.473 219.603 161.089 219.752C160.705 219.891 160.359 220.104 160.049 220.392C159.751 220.669 159.484 221.016 159.249 221.432C159.015 221.837 158.796 222.301 158.593 222.824V233H155.473V216.744H157.265C157.607 216.744 157.836 216.808 157.953 216.936C158.081 217.053 158.172 217.267 158.225 217.576L158.417 219.864ZM173.526 216.488C174.721 216.488 175.798 216.685 176.758 217.08C177.729 217.464 178.55 218.024 179.222 218.76C179.905 219.485 180.428 220.365 180.79 221.4C181.153 222.424 181.334 223.576 181.334 224.856C181.334 226.136 181.153 227.293 180.79 228.328C180.428 229.363 179.905 230.243 179.222 230.968C178.55 231.693 177.729 232.253 176.758 232.648C175.798 233.032 174.721 233.224 173.526 233.224C172.321 233.224 171.233 233.032 170.262 232.648C169.302 232.253 168.481 231.693 167.798 230.968C167.116 230.243 166.588 229.363 166.214 228.328C165.852 227.293 165.67 226.136 165.67 224.856C165.67 223.576 165.852 222.424 166.214 221.4C166.588 220.365 167.116 219.485 167.798 218.76C168.481 218.024 169.302 217.464 170.262 217.08C171.233 216.685 172.321 216.488 173.526 216.488ZM173.526 230.792C175.062 230.792 176.209 230.275 176.966 229.24C177.724 228.205 178.102 226.749 178.102 224.872C178.102 222.995 177.724 221.539 176.966 220.504C176.209 219.459 175.062 218.936 173.526 218.936C171.969 218.936 170.806 219.459 170.038 220.504C169.281 221.539 168.902 222.995 168.902 224.872C168.902 226.749 169.281 228.205 170.038 229.24C170.806 230.275 171.969 230.792 173.526 230.792ZM196.209 219.784C196.113 219.901 196.017 219.997 195.921 220.072C195.836 220.136 195.708 220.168 195.537 220.168C195.366 220.168 195.185 220.104 194.993 219.976C194.812 219.837 194.577 219.693 194.289 219.544C194.012 219.384 193.67 219.24 193.265 219.112C192.87 218.973 192.38 218.904 191.793 218.904C191.025 218.904 190.348 219.043 189.761 219.32C189.174 219.597 188.684 219.992 188.289 220.504C187.905 221.016 187.612 221.64 187.409 222.376C187.206 223.112 187.105 223.939 187.105 224.856C187.105 225.805 187.212 226.653 187.425 227.4C187.638 228.136 187.942 228.76 188.337 229.272C188.732 229.773 189.212 230.157 189.777 230.424C190.342 230.68 190.972 230.808 191.665 230.808C192.337 230.808 192.892 230.728 193.329 230.568C193.766 230.397 194.129 230.216 194.417 230.024C194.705 229.832 194.945 229.656 195.137 229.496C195.329 229.325 195.526 229.24 195.729 229.24C195.985 229.24 196.182 229.336 196.321 229.528L197.217 230.68C196.844 231.139 196.422 231.528 195.953 231.848C195.494 232.168 195.004 232.429 194.481 232.632C193.958 232.835 193.409 232.984 192.833 233.08C192.268 233.176 191.692 233.224 191.105 233.224C190.092 233.224 189.142 233.037 188.257 232.664C187.382 232.291 186.62 231.747 185.969 231.032C185.329 230.317 184.822 229.443 184.449 228.408C184.076 227.363 183.889 226.179 183.889 224.856C183.889 223.651 184.054 222.536 184.385 221.512C184.726 220.488 185.222 219.608 185.873 218.872C186.534 218.125 187.345 217.544 188.305 217.128C189.265 216.701 190.364 216.488 191.601 216.488C192.764 216.488 193.788 216.675 194.673 217.048C195.558 217.421 196.348 217.949 197.041 218.632L196.209 219.784ZM210.616 223.064C210.616 222.445 210.526 221.875 210.344 221.352C210.174 220.829 209.918 220.376 209.576 219.992C209.235 219.608 208.819 219.309 208.328 219.096C207.838 218.883 207.272 218.776 206.632 218.776C205.32 218.776 204.286 219.155 203.528 219.912C202.782 220.669 202.307 221.72 202.104 223.064H210.616ZM213.192 230.68C212.808 231.128 212.366 231.517 211.864 231.848C211.363 232.168 210.83 232.429 210.264 232.632C209.699 232.835 209.112 232.984 208.504 233.08C207.907 233.176 207.315 233.224 206.728 233.224C205.608 233.224 204.568 233.037 203.608 232.664C202.659 232.28 201.832 231.725 201.128 231C200.435 230.264 199.891 229.357 199.496 228.28C199.112 227.192 198.92 225.944 198.92 224.536C198.92 223.405 199.096 222.355 199.448 221.384C199.8 220.403 200.302 219.549 200.952 218.824C201.614 218.099 202.419 217.528 203.368 217.112C204.318 216.696 205.384 216.488 206.568 216.488C207.56 216.488 208.472 216.653 209.304 216.984C210.147 217.304 210.872 217.773 211.48 218.392C212.088 219.011 212.563 219.773 212.904 220.68C213.256 221.587 213.432 222.621 213.432 223.784C213.432 224.264 213.379 224.589 213.272 224.76C213.166 224.92 212.968 225 212.68 225H202.024C202.056 225.971 202.195 226.819 202.44 227.544C202.686 228.259 203.022 228.856 203.448 229.336C203.886 229.816 204.403 230.173 205 230.408C205.598 230.643 206.264 230.76 207 230.76C207.694 230.76 208.291 230.68 208.792 230.52C209.304 230.36 209.742 230.189 210.104 230.008C210.478 229.816 210.787 229.64 211.032 229.48C211.288 229.32 211.512 229.24 211.704 229.24C211.96 229.24 212.158 229.336 212.296 229.528L213.192 230.68ZM219.73 219.864C220.252 218.797 220.882 217.96 221.618 217.352C222.354 216.744 223.239 216.44 224.274 216.44C224.626 216.44 224.956 216.483 225.266 216.568C225.586 216.643 225.863 216.76 226.098 216.92L225.89 219.272C225.815 219.56 225.639 219.704 225.362 219.704C225.212 219.704 224.988 219.677 224.69 219.624C224.391 219.56 224.071 219.528 223.73 219.528C223.228 219.528 222.786 219.603 222.402 219.752C222.018 219.891 221.671 220.104 221.362 220.392C221.063 220.669 220.796 221.016 220.562 221.432C220.327 221.837 220.108 222.301 219.906 222.824V233H216.786V216.744H218.578C218.919 216.744 219.148 216.808 219.266 216.936C219.394 217.053 219.484 217.267 219.538 217.576L219.73 219.864ZM231.769 216.744V233H228.649V216.744H231.769ZM232.361 211.72C232.361 212.008 232.302 212.285 232.185 212.552C232.067 212.808 231.907 213.037 231.705 213.24C231.513 213.432 231.283 213.587 231.016 213.704C230.75 213.811 230.473 213.864 230.185 213.864C229.897 213.864 229.625 213.811 229.369 213.704C229.113 213.587 228.883 213.432 228.681 213.24C228.489 213.037 228.334 212.808 228.217 212.552C228.11 212.285 228.057 212.008 228.057 211.72C228.057 211.421 228.11 211.144 228.217 210.888C228.334 210.621 228.489 210.392 228.681 210.2C228.883 209.997 229.113 209.843 229.369 209.736C229.625 209.619 229.897 209.56 230.185 209.56C230.473 209.56 230.75 209.619 231.016 209.736C231.283 209.843 231.513 209.997 231.705 210.2C231.907 210.392 232.067 210.621 232.185 210.888C232.302 211.144 232.361 211.421 232.361 211.72ZM247.054 223.064C247.054 222.445 246.963 221.875 246.782 221.352C246.611 220.829 246.355 220.376 246.014 219.992C245.672 219.608 245.256 219.309 244.766 219.096C244.275 218.883 243.71 218.776 243.07 218.776C241.758 218.776 240.723 219.155 239.966 219.912C239.219 220.669 238.744 221.72 238.542 223.064H247.054ZM249.63 230.68C249.246 231.128 248.803 231.517 248.302 231.848C247.8 232.168 247.267 232.429 246.702 232.632C246.136 232.835 245.55 232.984 244.942 233.08C244.344 233.176 243.752 233.224 243.166 233.224C242.046 233.224 241.006 233.037 240.046 232.664C239.096 232.28 238.27 231.725 237.566 231C236.872 230.264 236.328 229.357 235.934 228.28C235.55 227.192 235.358 225.944 235.358 224.536C235.358 223.405 235.534 222.355 235.886 221.384C236.238 220.403 236.739 219.549 237.39 218.824C238.051 218.099 238.856 217.528 239.806 217.112C240.755 216.696 241.822 216.488 243.006 216.488C243.998 216.488 244.91 216.653 245.742 216.984C246.584 217.304 247.31 217.773 247.918 218.392C248.526 219.011 249 219.773 249.342 220.68C249.694 221.587 249.87 222.621 249.87 223.784C249.87 224.264 249.816 224.589 249.71 224.76C249.603 224.92 249.406 225 249.118 225H238.462C238.494 225.971 238.632 226.819 238.878 227.544C239.123 228.259 239.459 228.856 239.886 229.336C240.323 229.816 240.84 230.173 241.438 230.408C242.035 230.643 242.702 230.76 243.438 230.76C244.131 230.76 244.728 230.68 245.23 230.52C245.742 230.36 246.179 230.189 246.542 230.008C246.915 229.816 247.224 229.64 247.47 229.48C247.726 229.32 247.95 229.24 248.142 229.24C248.398 229.24 248.595 229.336 248.734 229.528L249.63 230.68ZM262.807 219.544C262.722 219.683 262.631 219.784 262.535 219.848C262.439 219.901 262.317 219.928 262.167 219.928C261.997 219.928 261.805 219.869 261.591 219.752C261.389 219.635 261.138 219.507 260.839 219.368C260.551 219.229 260.21 219.101 259.815 218.984C259.421 218.867 258.951 218.808 258.407 218.808C257.959 218.808 257.549 218.867 257.175 218.984C256.813 219.091 256.503 219.245 256.247 219.448C255.991 219.64 255.794 219.875 255.655 220.152C255.517 220.419 255.447 220.707 255.447 221.016C255.447 221.421 255.565 221.757 255.799 222.024C256.045 222.291 256.359 222.52 256.743 222.712C257.138 222.904 257.581 223.08 258.071 223.24C258.573 223.389 259.079 223.549 259.591 223.72C260.114 223.891 260.621 224.088 261.111 224.312C261.613 224.525 262.055 224.797 262.439 225.128C262.834 225.448 263.149 225.837 263.383 226.296C263.629 226.755 263.751 227.315 263.751 227.976C263.751 228.733 263.613 229.437 263.335 230.088C263.069 230.728 262.669 231.283 262.135 231.752C261.613 232.221 260.962 232.589 260.183 232.856C259.405 233.123 258.514 233.256 257.511 233.256C256.391 233.256 255.357 233.069 254.407 232.696C253.458 232.323 252.663 231.848 252.023 231.272L252.759 230.072C252.845 229.923 252.951 229.811 253.079 229.736C253.207 229.651 253.378 229.608 253.591 229.608C253.794 229.608 254.002 229.683 254.215 229.832C254.429 229.981 254.685 230.147 254.983 230.328C255.282 230.499 255.645 230.659 256.071 230.808C256.498 230.947 257.031 231.016 257.671 231.016C258.205 231.016 258.669 230.952 259.063 230.824C259.458 230.685 259.783 230.504 260.039 230.28C260.306 230.045 260.503 229.779 260.631 229.48C260.759 229.181 260.823 228.867 260.823 228.536C260.823 228.109 260.701 227.757 260.455 227.48C260.221 227.192 259.906 226.947 259.511 226.744C259.127 226.541 258.685 226.365 258.183 226.216C257.682 226.067 257.17 225.907 256.647 225.736C256.125 225.565 255.613 225.368 255.111 225.144C254.61 224.92 254.162 224.637 253.767 224.296C253.383 223.955 253.069 223.539 252.823 223.048C252.589 222.557 252.471 221.96 252.471 221.256C252.471 220.627 252.599 220.024 252.855 219.448C253.122 218.872 253.501 218.365 253.991 217.928C254.493 217.491 255.106 217.144 255.831 216.888C256.567 216.621 257.405 216.488 258.343 216.488C259.421 216.488 260.391 216.659 261.255 217C262.13 217.341 262.877 217.811 263.495 218.408L262.807 219.544Z" fill="white"/>
<path d="M182.714 93.8846C182.712 90.8708 181.897 87.9129 180.355 85.3189C178.813 82.7249 176.601 80.5897 173.948 79.1358C175.947 77.0605 177.066 74.2981 177.071 71.4231H171.429C171.427 72.9119 170.832 74.3393 169.774 75.3921C168.716 76.4449 167.282 77.037 165.786 77.0385C161.352 77.0443 157.097 78.78 153.934 81.873C150.772 84.966 148.954 89.1696 148.871 93.5814C145.254 89.9149 143.223 84.9844 143.214 79.8462C143.207 77.3631 142.372 74.9526 140.84 72.9924C139.308 71.0321 137.167 69.633 134.75 69.0141V63H129.107V69.0141C126.691 69.633 124.549 71.0321 123.017 72.9924C121.485 74.9526 120.65 77.3631 120.643 79.8462V93.8846H115V96.6923C115 107.117 119.162 117.115 126.569 124.487C133.977 131.859 144.024 136 154.5 136C164.976 136 175.023 131.859 182.431 124.487C189.838 117.115 194 107.117 194 96.6923V93.8846H182.714ZM165.786 82.6538C168.778 82.6576 171.646 83.842 173.762 85.9474C175.877 88.0527 177.068 90.9072 177.071 93.8846H154.5C154.504 90.9072 155.694 88.0527 157.81 85.9474C159.925 83.842 162.794 82.6576 165.786 82.6538ZM126.286 79.8462C126.286 78.3569 126.88 76.9286 127.938 75.8755C128.997 74.8224 130.432 74.2308 131.929 74.2308C133.425 74.2308 134.86 74.8224 135.919 75.8755C136.977 76.9286 137.571 78.3569 137.571 79.8462C137.583 84.8485 139.087 89.7347 141.894 93.8846H126.286V79.8462ZM154.5 130.385C146.012 130.374 137.836 127.196 131.589 121.477C125.342 115.759 121.477 107.917 120.759 99.5H188.244C187.526 107.917 183.661 115.76 177.413 121.478C171.165 127.197 162.989 130.375 154.5 130.385Z" fill="white"/>
</svg>
