<svg width="79" height="73" viewBox="0 0 79 73" fill="none" xmlns="http://www.w3.org/2000/svg">
<path d="M67.7143 30.8846C67.7116 27.8708 66.897 24.9129 65.3552 22.3189C63.8134 19.7249 61.6009 17.5897 58.9481 16.1358C60.9475 14.0605 62.0661 11.2981 62.0714 8.42308H56.4286C56.4271 9.91191 55.8321 11.3393 54.7742 12.3921C53.7163 13.4449 52.2818 14.037 50.7857 14.0385C46.3516 14.0443 42.0966 15.78 38.9341 18.873C35.7717 21.966 33.954 26.1696 33.8713 30.5814C30.2539 26.9149 28.2232 21.9844 28.2143 16.8462C28.2069 14.3631 27.3719 11.9526 25.8401 9.99236C24.3084 8.03215 22.1665 6.63298 19.75 6.01408V0H14.1071V6.01408C11.6906 6.63298 9.54872 8.03215 8.017 9.99236C6.48527 11.9526 5.65028 14.3631 5.64286 16.8462V30.8846H0V33.6923C0 44.1174 4.16159 54.1154 11.5693 61.487C18.977 68.8587 29.0239 73 39.5 73C49.9761 73 60.023 68.8587 67.4307 61.487C74.8384 54.1154 79 44.1174 79 33.6923V30.8846H67.7143ZM50.7857 19.6538C53.7777 19.6576 56.6461 20.842 58.7618 22.9474C60.8775 25.0527 62.0677 27.9072 62.0714 30.8846H39.5C39.5037 27.9072 40.694 25.0527 42.8096 22.9474C44.9253 20.842 47.7937 19.6576 50.7857 19.6538ZM11.2857 16.8462C11.2857 15.3569 11.8802 13.9286 12.9385 12.8755C13.9967 11.8224 15.432 11.2308 16.9286 11.2308C18.4251 11.2308 19.8604 11.8224 20.9187 12.8755C21.9769 13.9286 22.5714 15.3569 22.5714 16.8462C22.5827 21.8485 24.0871 26.7347 26.8939 30.8846H11.2857V16.8462ZM39.5 67.3846C31.0118 67.3741 22.8363 64.1957 16.5889 58.4773C10.3416 52.7589 6.47689 44.9166 5.75854 36.5H73.2443C72.5259 44.9171 68.6608 52.7598 62.4129 58.4782C56.1649 64.1967 47.9887 67.3749 39.5 67.3846Z" fill="white"/>
</svg>
